<svg width="100" height="100" viewBox="0 0 1193 100" fill="none" xmlns="http://www.w3.org/2000/svg">

    <g id="github">
        <svg width="88" height="86" viewBox="0 0 88 86" fill="none" xmlns="http://www.w3.org/2000/svg">
            <path fill-rule="evenodd" clip-rule="evenodd"
                  d="M44 0C19.69 0 0 19.69 0 44C0 63.47 12.595 79.915 30.085 85.745C32.285 86.13 33.11 84.81 33.11 83.655C33.11 82.61 33.055 79.145 33.055 75.46C22 77.495 19.14 72.765 18.26 70.29C17.765 69.025 15.62 65.12 13.75 64.075C12.21 63.25 10.01 61.215 13.695 61.16C17.16 61.105 19.635 64.35 20.46 65.67C24.42 72.325 30.745 70.455 33.275 69.3C33.66 66.44 34.815 64.515 36.08 63.415C26.29 62.315 16.06 58.52 16.06 41.69C16.06 36.905 17.765 32.945 20.57 29.865C20.13 28.765 18.59 24.255 21.01 18.205C21.01 18.205 24.695 17.05 33.11 22.715C36.63 21.725 40.37 21.23 44.11 21.23C47.85 21.23 51.59 21.725 55.11 22.715C63.525 16.995 67.21 18.205 67.21 18.205C69.63 24.255 68.09 28.765 67.65 29.865C70.455 32.945 72.16 36.85 72.16 41.69C72.16 58.575 61.875 62.315 52.085 63.415C53.68 64.79 55.055 67.43 55.055 71.555C55.055 77.44 55 82.17 55 83.655C55 84.81 55.825 86.185 58.025 85.745C66.7597 82.796 74.3497 77.1822 79.7268 69.6937C85.1039 62.2052 87.9974 53.219 88 44C88 19.69 68.31 0 44 0Z"
                  fill="black"/>
        </svg>
    </g>

    <g id="js">
        <svg width="106" height="106" viewBox="0 0 106 106" fill="none" xmlns="http://www.w3.org/2000/svg">
            <path d="M0.5 0.5H105.5V105.5H0.5V0.5Z" fill="#F5DE19"/>
            <path d="M71.0338 82.5312C71.9284 84.3485 73.3183 85.8759 75.0434 86.9375C76.7684 87.9991 78.7584 88.5515 80.7838 88.5313C84.8713 88.5313 87.485 86.4875 87.485 83.6562C87.485 80.2812 84.8 79.0738 80.3 77.105L77.8325 76.0475C70.7075 73.0138 65.9825 69.215 65.9825 61.1825C65.9825 53.7838 71.6075 48.1475 80.4313 48.1475C83.2877 47.9412 86.1416 48.5805 88.637 49.9856C91.1324 51.3907 93.159 53.4994 94.4638 56.0488L86.75 60.98C86.2476 59.716 85.3728 58.6345 84.2416 57.879C83.1105 57.1236 81.7764 56.7298 80.4163 56.75C79.8229 56.6906 79.2236 56.7555 78.6567 56.9404C78.0897 57.1254 77.5675 57.4265 77.1234 57.8244C76.6792 58.2224 76.3228 58.7085 76.0769 59.2518C75.831 59.7951 75.7009 60.3837 75.695 60.98C75.695 63.9388 77.5288 65.1388 81.7625 66.98L84.23 68.0375C92.615 71.6338 97.355 75.2975 97.355 83.5363C97.355 92.42 90.3763 97.2875 81.005 97.2875C77.3537 97.5201 73.713 96.6912 70.5223 94.9005C67.3317 93.1099 64.7274 90.4342 63.0238 87.1963L71.0338 82.5312ZM36.1775 83.3863C37.7263 86.135 39.1363 88.46 42.5263 88.46C45.7663 88.46 47.8138 87.1925 47.8138 82.2612V48.71H57.68V82.3925C57.68 92.6075 51.68 97.2575 42.9463 97.2575C39.8591 97.4263 36.7931 96.6569 34.1513 95.0506C31.5096 93.4442 29.4157 91.0761 28.145 88.2575L36.1775 83.3863Z" fill="black"/>
        </svg>
    </g>

    <g id="bootstrap">
        <svg width="88" height="87" viewBox="0 0 88 87" fill="none" xmlns="http://www.w3.org/2000/svg">
            <g clip-path="url(#clip0_15_2274)">
                <path d="M0 75.7821C0 81.9781 5.08028 87 11.3468 87H76.6528C82.9204 87 88 81.9774 88 75.7821V11.2182C88 5.02187 82.9197 0 76.6532 0H11.3472C5.07959 0 0 5.02255 0 11.2179V75.7818V75.7821Z"
                      fill="#563D7C"/>
                <path d="M36.4919 38.4832V26.1629H47.4613C48.5063 26.1629 49.5135 26.2489 50.4836 26.4212C51.4536 26.5931 52.312 26.9003 53.0583 27.3431C53.8042 27.786 54.4013 28.4007 54.8492 29.1875C55.2968 29.9746 55.5209 30.9829 55.5209 32.2121C55.5209 34.4255 54.8492 36.0241 53.5058 37.0076C52.1628 37.9915 50.4464 38.4832 48.3568 38.4832H36.4919ZM24.7759 17.1621V69.8379H50.5956C52.9837 69.8379 55.3095 69.5429 57.5731 68.9526C59.8367 68.3623 61.8514 67.4525 63.6176 66.223C65.3834 64.9934 66.789 63.407 67.8337 61.4645C68.8787 59.5216 69.4008 57.2222 69.4008 54.5663C69.4008 51.2709 68.5923 48.4553 66.9757 46.1192C65.3587 43.7828 62.9084 42.1474 59.6249 41.2129C62.0129 40.0819 63.8166 38.6307 65.0355 36.8601C66.2541 35.0895 66.8636 32.8765 66.8636 30.2203C66.8636 27.7612 66.4532 25.6956 65.6323 24.0232C64.8114 22.3512 63.6547 21.0108 62.1621 20.0025C60.6699 18.9942 58.879 18.2686 56.7893 17.8262C54.7 17.3833 52.3866 17.1621 49.8493 17.1621H24.7759ZM36.4919 60.8371V46.3771H49.2523C51.7895 46.3771 53.8293 46.9548 55.3717 48.111C56.9138 49.2668 57.6851 51.1971 57.6851 53.9023C57.6851 55.2797 57.4486 56.4107 56.976 57.296C56.5033 58.1813 55.8691 58.8823 55.073 59.3986C54.2772 59.9151 53.3566 60.2839 52.312 60.5054C51.267 60.7263 50.1728 60.8371 49.0285 60.8371H36.4919Z"
                      fill="white"/>
            </g>
            <defs>
                <clipPath id="clip0_15_2274">
                    <rect width="88" height="87" fill="white"/>
                </clipPath>
            </defs>
        </svg>
    </g>

    <g id="git">
        <svg width="105" height="105" viewBox="0 0 105 105" fill="none" xmlns="http://www.w3.org/2000/svg">
            <path d="M103.02 47.8219L57.1758 1.98038C54.5372 -0.6598 50.2552 -0.6598 47.6134 1.98038L38.0937 11.5001L50.1699 23.5763C52.9762 22.6281 56.1943 23.2642 58.4313 25.5012C60.6789 27.7525 61.3106 30.9981 60.3393 33.8134L71.9775 45.452C74.7932 44.482 78.0421 45.1095 80.291 47.3621C83.434 50.5039 83.434 55.596 80.291 58.7399C77.1471 61.8841 72.055 61.8841 68.9095 58.7399C66.5454 56.3733 65.9613 52.9013 67.1582 49.9888L56.3046 39.1352L56.3034 67.6973C57.0902 68.0863 57.8088 68.6002 58.4313 69.2189C61.5743 72.3607 61.5743 77.4532 58.4313 80.5995C55.2874 83.7422 50.1929 83.7422 47.0535 80.5995C43.9105 77.4532 43.9105 72.3611 47.0535 69.2193C47.8067 68.4658 48.7019 67.869 49.6871 67.4635V38.6352C48.7004 38.2324 47.8048 37.6353 47.0535 36.8793C44.6722 34.5013 44.0996 31.0071 45.3198 28.0831L33.4154 16.1775L1.98105 47.6099C-0.660352 50.2525 -0.660352 54.5349 1.98105 57.1755L47.8259 103.018C50.4652 105.658 54.7464 105.658 57.3891 103.018L103.019 57.3884C105.66 54.747 105.66 50.4621 103.019 47.8219" fill="#DE4C36"/>
        </svg>

    </g>

    <g id="vector">
        <svg width="105" height="100" viewBox="0 0 105 100" fill="none" xmlns="http://www.w3.org/2000/svg">
        <path d="M72.6971 69.5627C76.5688 69.1619 79.5061 65.8242 79.3725 61.8184C79.2393 57.8131 75.9012 54.6086 71.8959 54.6086H71.6291C67.4897 54.7422 64.2856 58.2135 64.4193 62.3525C64.5529 64.3553 65.3537 66.091 66.5553 67.2926C62.016 76.2385 55.0734 82.7807 44.6594 88.2549C37.5832 91.9934 30.2402 93.3287 22.8971 92.3943C16.8889 91.593 12.216 88.923 9.27827 84.5164C5.00614 77.9742 4.60573 70.8975 8.21065 63.8213C10.7475 58.7475 14.7525 55.009 17.2893 53.1398C16.7553 51.4041 15.9541 48.4668 15.5537 46.3307C-3.80574 60.35 -1.80287 79.3094 4.07172 88.2549C8.47745 94.9311 17.4229 99.0701 27.3029 99.0701C29.9729 99.0701 32.643 98.8029 35.3135 98.1357C52.4033 94.7975 65.3541 84.65 72.6971 69.5627ZM96.1955 53.0066C86.0483 41.1234 71.0951 34.5811 54.0053 34.5811H51.8693C50.6676 32.1779 48.1307 30.5754 45.327 30.5754H45.0598C40.9213 30.709 37.7172 34.1803 37.8504 38.3197C37.984 42.325 41.3217 45.5295 45.327 45.5295H45.5938C48.5311 45.3959 51.068 43.5266 52.1361 40.9898H54.5393C64.6865 40.9898 74.2992 43.927 82.9779 49.6684C89.6533 54.0746 94.4598 59.816 97.1299 66.7586C99.3996 72.3664 99.266 77.8406 96.8627 82.5139C93.1246 89.5902 86.8496 93.4623 78.5717 93.4623C73.2311 93.4623 68.1578 91.8598 65.4873 90.6582C64.0188 91.9934 61.3484 94.1295 59.4791 95.4652C65.2205 98.1352 71.0951 99.6041 76.7025 99.6041C89.5197 99.6041 98.9992 92.5275 102.604 85.4512C106.476 77.707 106.209 64.3553 96.1955 53.0066ZM28.3709 71.832C28.5045 75.8377 31.8422 79.0418 35.8475 79.0418H36.1147C40.2537 78.9086 43.4578 75.4369 43.3242 71.2979C43.191 67.2922 39.8529 64.0881 35.8475 64.0881H35.5807C35.3135 64.0881 34.9127 64.0881 34.6463 64.2213C29.1721 55.1422 26.9025 45.2623 27.7037 34.5807C28.2373 26.5697 30.9078 19.6266 35.5807 13.8852C39.4525 8.94508 46.9291 6.5418 52.0029 6.40861C66.1549 6.14139 72.1627 23.7656 72.5635 30.8422C74.2992 31.2426 77.2365 32.1775 79.2393 32.8451C77.6369 11.2156 64.2856 0 51.4688 0C39.4524 0 28.3709 8.67869 23.9647 21.4963C17.8234 38.5865 21.8287 55.009 29.3053 67.9602C28.6381 68.8947 28.2373 70.3635 28.3709 71.8324V71.832Z" fill="#764ABC"/>
    </svg>

    </g>
    <g id="saas">
        <svg width="117" height="87" viewBox="0 0 117 87" fill="none" xmlns="http://www.w3.org/2000/svg">
            <path d="M100.673 50.0767C96.6031 50.0975 93.0654 51.0695 90.1035 52.5064C89.0163 50.3721 87.9295 48.4708 87.738 47.0761C87.5246 45.4494 87.2691 44.4561 87.5246 42.5122C87.7805 40.5683 88.9313 37.8002 88.9098 37.589C88.8888 37.3779 88.6539 36.3846 86.3099 36.3638C83.9659 36.3425 81.9413 36.8074 81.7069 37.42C81.4724 38.0326 81.025 39.4274 80.7266 40.8638C80.3217 42.9771 76.0386 50.5199 73.5881 54.4711C72.7993 52.9291 72.1175 51.5765 71.968 50.499C71.7551 48.8723 71.4991 47.879 71.7551 45.9351C72.011 43.9912 73.1617 41.2235 73.1403 41.0119C73.1188 40.8008 72.8843 39.8075 70.5403 39.7867C68.1959 39.7654 66.1713 40.2303 65.9373 40.8429C65.7029 41.456 65.447 42.8924 64.9571 44.2871C64.4667 45.6818 58.7769 58.2751 57.2853 61.5285C56.6824 62.8454 56.0501 64.1487 55.3887 65.4376C55.3887 65.4376 55.3672 65.5011 55.3032 65.6067C55.0954 66.0108 54.8824 66.4123 54.6643 66.8111V66.8319C54.3444 67.4028 54.0035 67.9307 53.833 67.9307C53.7051 67.9307 53.4706 66.4096 53.8755 64.3388C54.7278 59.9652 56.7524 53.1616 56.7314 52.9291C56.7314 52.8022 57.1148 51.6191 55.4102 51.0061C53.7476 50.3934 53.1512 51.4075 53.0017 51.4075C52.8527 51.4075 52.7458 51.7669 52.7458 51.7669C52.7458 51.7669 54.6003 44.1181 49.2085 44.1181C45.8418 44.1181 41.1958 47.7735 38.8943 51.0695C36.278 52.4812 33.6639 53.8969 31.0521 55.3166C29.7953 56.014 28.4951 56.7114 27.2804 57.3661C27.1949 57.2818 27.1099 57.1758 27.0245 57.0915C20.5034 50.1823 8.44203 45.3012 8.95342 36.0257C9.14537 32.645 10.3171 23.7705 32.1178 12.9948C50.0609 4.22589 64.3392 6.65555 66.8111 12.0437C70.3484 19.735 59.1608 34.0184 40.6204 36.0887C33.5455 36.8708 29.8373 34.1661 28.9 33.152C27.9197 32.0953 27.7703 32.0319 27.4079 32.2435C26.8115 32.5607 27.1949 33.5114 27.4079 34.0605C27.9622 35.497 30.2422 38.0326 34.0994 39.2796C37.5091 40.378 45.7988 40.9911 55.8361 37.1454C67.0666 32.8348 75.8467 20.8547 73.2682 10.8184C70.6893 0.633969 53.6411 -2.7255 37.5091 2.95805C27.9197 6.33927 17.52 11.6635 10.0402 18.594C1.15366 26.8341 -0.253009 33.9971 0.322365 36.9977C2.38987 47.6466 17.2006 54.5771 23.1248 59.7115C22.8264 59.8805 22.549 60.0287 22.315 60.1556C19.3526 61.6133 8.05815 67.4658 5.24526 73.6569C2.04894 80.6717 5.75711 85.7009 8.20759 86.3765C15.8154 88.4686 23.6362 84.7077 27.8343 78.4953C32.0323 72.2834 31.521 64.2119 29.5819 60.5144C29.5604 60.4723 29.5394 60.4297 29.4964 60.3876C30.2637 59.9439 31.0521 59.479 31.8194 59.0354C33.2297 58.2088 34.6578 57.4127 36.1029 56.6475C35.3781 58.6127 34.8452 60.958 34.5898 64.3388C34.2699 68.3114 35.9105 73.4666 38.063 75.4947C39.0223 76.3829 40.1516 76.4037 40.8764 76.4037C43.3908 76.4037 44.5206 74.3329 45.7778 71.882C47.312 68.8818 48.6972 65.3955 48.6972 65.3955C48.6972 65.3955 46.971 74.8191 51.6595 74.8191C53.3641 74.8191 55.0902 72.6215 55.8576 71.5018V71.5227C55.8576 71.5227 55.9001 71.4592 55.9855 71.3115C56.156 71.0369 56.2625 70.8674 56.2625 70.8674V70.8257C56.9443 69.6422 58.479 66.9588 60.759 62.5005C63.6998 56.7535 66.5342 49.5697 66.5342 49.5697C66.5342 49.5697 66.7901 51.3232 67.6635 54.2391C68.1753 55.9506 69.2401 57.831 70.0929 59.6481C69.4111 60.5992 68.9847 61.1271 68.9847 61.1271L69.0061 61.1484C68.4518 61.8666 67.8554 62.6482 67.1946 63.4095C64.8716 66.1558 62.1017 69.3046 61.7178 70.2127C61.2699 71.2902 61.3769 72.0723 62.2296 72.7062C62.8475 73.1711 63.9553 73.2341 65.085 73.1711C67.1735 73.0229 68.6437 72.5159 69.3681 72.1992C70.4978 71.7977 71.819 71.1846 73.0548 70.2761C75.3353 68.6068 76.72 66.2193 76.5925 63.0714C76.5285 61.3387 75.9531 59.6059 75.2498 57.9787C75.4632 57.6833 75.6547 57.3874 75.8681 57.0915C79.4694 51.8724 82.2612 46.1463 82.2612 46.1463C82.2612 46.1463 82.5172 47.8999 83.3905 50.8162C83.8169 52.2952 84.6907 53.9011 85.4575 55.4644C82.0693 58.1904 79.9808 61.3595 79.2349 63.4303C77.8927 67.276 78.9365 69.0083 80.9185 69.4097C81.8134 69.6 83.0921 69.1773 84.0298 68.7758C85.2231 68.3956 86.6298 67.7409 87.9725 66.7685C90.2529 65.0996 92.4475 62.7751 92.3195 59.6272C92.2555 58.1904 91.8721 56.7743 91.3392 55.4009C94.2161 54.2183 97.9243 53.563 102.655 54.1122C112.799 55.2953 114.802 61.5707 114.418 64.2124C114.035 66.8532 111.904 68.2901 111.201 68.7337C110.497 69.1777 110.263 69.3254 110.327 69.6422C110.412 70.1071 110.753 70.0862 111.35 70.0015C112.181 69.8538 116.678 67.8673 116.869 63.0075C117.189 56.7956 111.222 50.0133 100.673 50.0767ZM22.4215 76.2347C19.0542 79.8688 14.3662 81.2422 12.3417 80.0804C10.1682 78.8334 11.0205 73.4666 15.1546 69.6213C17.669 67.276 20.9083 65.0992 23.0608 63.7683C23.5507 63.4724 24.2755 63.0501 25.1493 62.5218C25.2983 62.437 25.3838 62.3949 25.3838 62.3949L25.8952 62.0777C27.4079 67.5714 25.9592 72.4103 22.4215 76.2347ZM46.9285 59.7115C45.7563 62.5431 43.3058 69.7904 41.8142 69.3889C40.5354 69.0509 39.7467 63.5572 41.5582 58.1269C42.4745 55.4009 44.4136 52.147 45.5433 50.8796C47.3759 48.851 49.4005 48.1745 49.8904 48.9992C50.5087 50.0767 47.6529 57.9366 46.9285 59.7115ZM67.1521 69.3042C66.6617 69.5579 66.1933 69.7269 65.9798 69.6C65.8309 69.5153 66.1933 69.1773 66.1933 69.1773C66.1933 69.1773 68.7292 66.473 69.7305 65.2473C70.3063 64.5291 70.9877 63.684 71.7126 62.7329V63.0075C71.7126 66.2406 68.5583 68.4169 67.1516 69.3042H67.1521ZM82.7511 65.7757C82.3887 65.5219 82.4527 64.6768 83.6674 62.0356C84.1363 61.0002 85.2441 59.2679 87.1412 57.5986C87.3541 58.2746 87.5036 58.9299 87.4821 59.5425C87.4606 63.6206 84.5202 65.1417 82.7511 65.7757Z"
                  fill="#CD6799"/>
        </svg>
    </g>

    <g id="tailwind">
        <svg width="115" height="69" viewBox="0 0 115 69" fill="none" xmlns="http://www.w3.org/2000/svg">
            <path d="M28.8438 23.0844C32.6646 7.80109 42.2167 0.159424 57.5 0.159424C80.425 0.159424 83.2906 17.3532 94.7531 20.2188C102.395 22.1292 109.081 19.2636 114.812 11.6219C110.992 26.9053 101.44 34.5469 86.1562 34.5469C63.2313 34.5469 60.3656 17.3532 48.9031 14.4875C41.2615 12.5771 34.575 15.4428 28.8438 23.0844ZM0.1875 57.4719C4.00833 42.1886 13.5604 34.5469 28.8438 34.5469C51.7687 34.5469 54.6344 51.7407 66.0969 54.6063C73.7385 56.5167 80.425 53.6511 86.1562 46.0094C82.3354 61.2928 72.7833 68.9344 57.5 68.9344C34.575 68.9344 31.7094 51.7407 20.2469 48.875C12.6052 46.9646 5.91875 49.8303 0.1875 57.4719Z"
                  fill="#44A8B3"/>
        </svg>
    </g>

    <g id="css">
        <svg width="94" height="105" viewBox="0 0 94 105" fill="none" xmlns="http://www.w3.org/2000/svg">
            <path d="M9.13246 94.1537L0.709961 0.4375H93.29L84.8562 94.1388L46.9437 104.562L9.13246 94.1537Z"
                  fill="#1572B6"/>
            <path d="M47 96.5969L77.6375 88.1739L84.845 8.10181H47V96.5969Z" fill="#33A9DC"/>
            <path d="M47 42.054H62.3375L63.395 30.2842H47V18.7896H76.0625L75.785 21.8724L72.9387 53.5487H47V42.054Z"
                  fill="white"/>
            <path d="M47.0711 71.9045L47.0186 71.9193L34.1112 68.4609L33.2862 59.2942H21.6499L23.2737 77.3413L47.0149 83.8788L47.0711 83.864V71.9045Z"
                  fill="#EBEBEB"/>
            <path d="M61.3513 53.0615L59.9563 68.4534L47.03 71.9119V83.8714L70.79 77.3412L70.9663 75.4001L72.98 53.0615H61.3513Z"
                  fill="white"/>
            <path d="M47.0411 18.7896V30.2842H19.0436L18.8111 27.6997L18.2824 21.8724L18.0049 18.7896H47.0411ZM46.9999 42.054V53.5487H34.2536L34.0211 50.9642L33.4961 45.1369L33.2186 42.054H46.9999Z"
                  fill="#EBEBEB"/>
        </svg>
    </g>

    <g id="html5">
        <svg width="94" height="106" viewBox="0 0 94 106" fill="none" xmlns="http://www.w3.org/2000/svg">
            <path d="M9.13255 95.0038L0.706299 0.5H93.2938L84.8563 94.9888L46.9438 105.5L9.13255 95.0038Z"
                  fill="#E44F26"/>
            <path d="M47 97.4675L77.6375 88.9738L84.845 8.22876H47V97.4675Z" fill="#F1662A"/>
            <path d="M47 43.2762H31.6625L30.605 31.4074H47V19.8162H17.9375L18.215 22.9287L21.0613 54.8674H47V43.2762ZM47 73.3774L46.9475 73.3924L34.04 69.9087L33.215 60.6649H21.5787L23.2025 78.8599L46.9475 85.4524L47 85.4374V73.3774Z"
                  fill="#EBEBEB"/>
            <path d="M46.9587 43.2762V54.8674H61.2312L59.8887 69.9012L46.9587 73.3887V85.4487L70.7225 78.8599L70.895 76.9024L73.6175 46.3887L73.9025 43.2762H46.9587ZM46.9587 19.8162V31.4074H74.9562L75.1887 28.8049L75.7175 22.9287L75.995 19.8162H46.9587Z"
                  fill="white"/>
        </svg>
    </g>

    <g id="react">
        <path d="M92.9055 32.7027C91.703 32.2886 90.4903 31.905 89.2686 31.5522C89.4738 30.7106 89.6627 29.8791 89.8304 29.0622C92.5837 15.6483 90.7838 4.84172 84.6359 1.28369C78.7415 -2.12728 69.1015 1.42943 59.3658 9.93336C58.4063 10.773 57.4681 11.6368 56.552 12.5239C55.9388 11.934 55.3148 11.3555 54.6802 10.7888C44.4766 1.6961 34.2492 -2.13614 28.108 1.43209C22.2188 4.85368 20.4749 15.0126 22.9537 27.7253C23.2003 28.9844 23.4787 30.2369 23.7887 31.4818C22.341 31.8947 20.9441 32.3341 19.6072 32.8019C7.64431 36.9881 0.00463867 43.5482 0.00463867 50.3528C0.00463867 57.3808 8.20617 64.4299 20.666 68.7043C21.6762 69.0494 22.6947 69.3692 23.7208 69.6633C23.3875 71.0041 23.0917 72.354 22.8336 73.7113C20.4705 86.2034 22.3159 96.1222 28.1892 99.5221C34.2554 103.033 44.4369 99.4247 54.3505 90.7267C55.1544 90.0196 55.9406 89.2924 56.7083 88.5459C57.7003 89.5065 58.7188 90.4392 59.7626 91.3429C69.3659 99.6364 78.85 102.985 84.7176 99.5762C90.7781 96.0549 92.7479 85.3994 90.1906 72.4355C89.9891 71.4199 89.7632 70.4093 89.5131 69.4046C90.2281 69.192 90.9299 68.9732 91.614 68.7455C104.567 64.4384 112.995 57.4747 112.995 50.3528C112.995 43.5234 105.109 36.919 92.9055 32.7027ZM90.0961 64.1473C89.4782 64.3524 88.8444 64.5504 88.1982 64.7431C86.7682 60.1995 84.8385 55.3683 82.4768 50.3763C84.7304 45.5035 86.5859 40.7339 87.9758 36.2199C89.1317 36.5557 90.2533 36.9097 91.3346 37.2831C101.791 40.8961 108.168 46.2371 108.168 50.3528C108.168 54.7366 101.28 60.4276 90.0961 64.1473ZM85.4556 73.3764C86.5864 79.1086 86.7475 84.2915 85.9985 88.3435C85.3258 91.9843 83.9726 94.4114 82.2989 95.3838C78.7384 97.4525 71.1234 94.7636 62.9109 87.6706C61.94 86.8304 60.9926 85.9633 60.0698 85.0703C63.2538 81.5756 66.4356 77.513 69.5411 73.0008C75.0035 72.5144 80.164 71.7188 84.8438 70.633C85.0693 71.5425 85.2732 72.4572 85.4556 73.3764ZM38.5256 95.0263C35.0467 96.2591 32.2758 96.2946 30.6008 95.3253C27.0368 93.2623 25.5551 85.298 27.5761 74.615C27.8164 73.3526 28.0914 72.0972 28.401 70.8501C33.0292 71.8778 38.1522 72.6167 43.6274 73.0623C46.7541 77.4776 50.0277 81.5357 53.327 85.0893C52.6258 85.7702 51.9081 86.4337 51.1744 87.0792C46.7903 90.9252 42.3973 93.6539 38.5256 95.0263ZM22.2276 64.1203C16.718 62.2301 12.1679 59.7738 9.04919 57.0933C6.24649 54.6848 4.8319 52.2931 4.8319 50.3528C4.8319 46.2234 10.9656 40.9563 21.1961 37.3766C22.4377 36.9424 23.7371 36.5327 25.0855 36.1482C26.4996 40.764 28.3543 45.5903 30.5924 50.4707C28.3251 55.4232 26.444 60.3266 25.0162 64.997C24.0796 64.7277 23.1498 64.4354 22.2276 64.1203ZM27.6909 26.7946C25.5674 15.903 26.9776 7.687 30.5267 5.62491C34.3066 3.42861 42.6652 6.56005 51.4754 14.4115C52.0499 14.9246 52.6151 15.4482 53.1707 15.9818C49.8878 19.5199 46.6442 23.548 43.5453 27.9371C38.2312 28.4314 33.1444 29.2252 28.4677 30.2888C28.1795 29.131 27.9205 27.966 27.6909 26.795V26.7946ZM76.43 38.8738C75.3254 36.9588 74.1797 35.0679 72.9939 33.2023C76.599 33.6599 80.0532 34.2673 83.2968 35.0097C82.3232 38.1425 81.1094 41.4175 79.6807 44.7753C78.6364 42.7866 77.5526 40.8191 76.43 38.8738ZM56.5542 19.4442C58.7805 21.8651 61.0103 24.5677 63.2035 27.5003C58.7545 27.2894 54.298 27.2885 49.849 27.4976C52.0443 24.5921 54.2931 21.893 56.5542 19.4442ZM36.5509 38.9071C35.4424 40.8366 34.3788 42.7919 33.3612 44.7713C31.9558 41.4254 30.7531 38.1354 29.7711 34.9583C32.9948 34.2345 36.4326 33.6427 40.0148 33.1935C38.8158 35.0704 37.6608 36.9753 36.5509 38.9066V38.9071ZM40.1176 67.8569C36.4168 67.4422 32.9273 66.881 29.7044 66.1766C30.7019 62.9429 31.9311 59.5828 33.3669 56.1652C34.3886 58.1461 35.4566 60.1025 36.5699 62.033C37.7148 64.0175 38.9003 65.9613 40.1176 67.8569ZM56.6875 81.6026C54.3995 79.1255 52.1176 76.3847 49.8891 73.4371C52.0527 73.5222 54.2582 73.5656 56.5 73.5656C58.803 73.5656 61.0796 73.5137 63.3204 73.4136C61.1202 76.4144 58.8988 79.1591 56.6875 81.6026ZM79.7262 55.9907C81.2365 59.4459 82.5094 62.7883 83.5202 65.9667C80.2443 66.7171 76.7072 67.3213 72.9803 67.77C74.1745 65.8699 75.331 63.9461 76.449 61.9998C77.5857 60.0214 78.6783 58.0179 79.7262 55.9907ZM72.2679 59.5793C70.5563 62.5634 68.7486 65.4908 66.8474 68.357C63.4037 68.6018 59.9523 68.7234 56.5 68.7216C52.9836 68.7216 49.5634 68.6117 46.2699 68.3973C44.3191 65.5378 42.4769 62.6052 40.747 59.6059H40.7475C39.0258 56.6224 37.4176 53.5744 35.9264 50.4685C37.4138 47.3618 39.0171 44.3124 40.7329 41.3266L40.7325 41.3271C42.4476 38.3406 44.2752 35.4206 46.2112 32.5733C49.5713 32.3181 53.0171 32.1853 56.4995 32.1853H56.5C59.9983 32.1853 63.4484 32.3195 66.8077 32.5764C68.7242 35.4194 70.5401 38.3294 72.252 41.3009C73.9735 44.2801 75.598 47.3146 77.123 50.3998C75.6137 53.5165 73.9943 56.5783 72.2679 59.5793ZM82.2252 5.4805C86.0086 7.67061 87.4801 16.5023 85.1029 28.0841C84.9511 28.823 84.7807 29.5756 84.5953 30.3389C79.9071 29.2527 74.8168 28.4452 69.4873 27.9433C66.3827 23.5059 63.1655 19.4717 59.936 15.9792C60.7824 15.1603 61.6489 14.3627 62.5348 13.5871C70.8767 6.30135 78.673 3.42462 82.2252 5.4805ZM56.5 40.2263C62.0723 40.2263 66.5897 44.7602 66.5897 50.3528C66.5897 55.9455 62.0723 60.4794 56.5 60.4794C50.9277 60.4794 46.4102 55.9455 46.4102 50.3528C46.4102 44.7602 50.9277 40.2263 56.5 40.2263Z"
              fill="#00D8FF"/>
    </g>

    <g id="vscode">
        <svg width="112" height="112" viewBox="0 0 112 112" fill="none" xmlns="http://www.w3.org/2000/svg">
            <path d="M101.535 17.605L81.354 7.88899C80.2143 7.33948 78.9319 7.15814 77.6845 7.37011C76.4372 7.58208 75.2867 8.17686 74.3925 9.07199L8.32998 69.3C7.52845 70.0273 7.04865 71.0432 6.99614 72.1243C6.94363 73.2053 7.32271 74.2629 8.04998 75.0645C8.13748 75.159 8.22498 75.25 8.31948 75.334L13.713 80.234C14.4178 80.8754 15.3249 81.2497 16.277 81.2919C17.229 81.3341 18.1657 81.0416 18.9245 80.465L98.497 20.125C99.098 19.6689 99.8144 19.3897 100.566 19.3186C101.317 19.2476 102.073 19.3877 102.749 19.7231C103.424 20.0585 103.993 20.5758 104.391 21.217C104.789 21.8581 105 22.5975 105 23.352V23.1175C105 21.9656 104.675 20.8372 104.062 19.862C103.449 18.8868 102.573 18.1045 101.535 17.605Z"
                  fill="#0065A9"/>
            <path d="M101.535 94.395L81.354 104.115C80.214 104.662 78.9319 104.843 77.6849 104.631C76.4379 104.419 75.2875 103.825 74.3925 102.932L8.32998 42.7C7.52845 41.9727 7.04865 40.9568 6.99614 39.8758C6.94363 38.7947 7.32271 37.7371 8.04998 36.9355C8.13748 36.841 8.22498 36.75 8.31948 36.666L13.713 31.766C14.4185 31.1219 15.3277 30.7459 16.2821 30.7037C17.2365 30.6615 18.1754 30.9557 18.935 31.535L98.497 91.875C99.098 92.3311 99.8144 92.6104 100.566 92.6814C101.317 92.7524 102.073 92.6123 102.749 92.2769C103.424 91.9415 103.993 91.4242 104.391 90.783C104.789 90.1419 105 89.4025 105 88.648V88.9C104.996 90.0488 104.669 91.1733 104.057 92.1451C103.444 93.1168 102.57 93.8965 101.535 94.395Z"
                  fill="#007ACC"/>
            <path d="M81.354 104.115C80.214 104.662 78.932 104.843 77.685 104.631C76.438 104.419 75.2876 103.825 74.3925 102.932C74.8952 103.428 75.533 103.764 76.2261 103.899C76.9193 104.035 77.6369 103.962 78.289 103.691C78.9412 103.42 79.4988 102.963 79.8921 102.376C80.2855 101.79 80.4969 101.1 80.5 100.394V11.606C80.5006 10.8965 80.2906 10.2028 79.8966 9.61281C79.5026 9.02277 78.9424 8.56294 78.2868 8.29158C77.6313 8.02022 76.91 7.94953 76.2142 8.08846C75.5184 8.2274 74.8796 8.56971 74.3785 9.07204C75.2729 8.17723 76.4232 7.58242 77.6703 7.36986C78.9174 7.1573 80.1998 7.3375 81.34 7.88554L101.518 17.5875C102.559 18.0845 103.438 18.8658 104.054 19.8412C104.671 20.8166 104.998 21.9463 105 23.1V88.9C105 90.0528 104.675 91.1823 104.061 92.1582C103.448 93.1341 102.571 93.9168 101.532 94.416L81.354 104.115Z"
                  fill="#1F9CF0"/>
        </svg>
    </g>

    <g id="man">
        <svg width="102" height="120" viewBox="0 0 102 120" fill="none" xmlns="http://www.w3.org/2000/svg">
            <path d="M58.365 119.745C56.8013 119.471 55.1813 118.729 54.2625 117.907C53.6388 117.253 53.2829 116.389 53.265 115.485C53.265 114.566 53.7338 113.276 54.4763 111.99C54.9263 111.266 55.2788 110.486 55.53 109.665C55.6875 109.099 56.0175 108.18 56.2725 107.595L56.7225 106.522L56.8388 99.3562C56.8987 95.3924 57.015 91.7212 57.1125 91.1512C57.3675 89.5087 57.795 87.9074 58.3612 86.3474L58.7925 85.3124L58.1663 84.9412C57.6 84.5887 57.1313 84.1012 55.275 81.8924C52.9913 79.1962 49.9838 77.7112 45.7238 77.2049C44.3363 77.0699 42.93 76.9687 41.5238 76.9124C35.2725 76.6199 31.6988 75.3112 28.4775 72.1462C26.0738 69.7837 24.825 67.0274 24.3188 62.9662C23.6363 57.4762 22.875 54.6637 21.4688 52.3799C21.1222 51.8159 20.7229 51.2861 20.2763 50.7974L19.71 50.2312L18.4613 51.0337C17.7788 51.4837 16.8188 52.0499 16.35 52.3049C14.7863 53.1637 13.3013 54.1199 11.8763 55.1549C8.38125 57.6937 4.57125 60.8774 2.4825 62.9662C1.545 63.9037 1.0575 64.3124 0.840001 64.2749C-0.584999 64.0612 0.50625 57.8887 2.83125 53.2387C5.80125 47.2424 10.8 41.7149 16.5825 37.9837C21.33 34.9162 29.0063 30.6974 32.5575 29.2124C38.865 26.5762 47.0288 23.7224 52.6163 22.1999C53.79 21.8662 54.51 21.5737 54.9975 21.2437C56.0925 20.4824 57.165 20.1112 58.395 20.0924C59.43 20.0737 59.5275 20.0549 60.525 19.3874C61.6988 18.6262 62.0475 18.5849 63.2213 18.9974L63.9825 19.2712L64.92 18.6262L65.8575 17.9999L67.2038 18.0187C68.2387 18.0374 68.7075 17.9999 69.1575 17.8049C69.7237 17.5499 69.7425 17.5124 69.9 16.5749C70.2525 14.5424 70.29 13.5262 70.0763 12.2962C69.8025 10.6762 69.765 4.38744 70.0388 3.15369C70.3313 1.82619 70.5263 1.55244 71.5238 1.06494C73.0088 0.341191 74.1225 0.127441 76.68 0.127441C79.8038 0.127441 81.3863 0.558691 82.56 1.69119C83.6138 2.70744 83.79 5.08869 83.2425 10.6762C82.9088 13.8974 82.8713 14.7974 82.9688 16.9049C83.0063 18.2512 83.1038 19.5224 83.145 19.6987C83.2238 20.0324 83.3025 20.0512 84.435 20.0699C85.5488 20.0887 85.7438 20.1487 86.7975 20.6962C87.8138 21.2249 88.575 21.8699 88.7325 22.3387C88.7513 22.4362 88.9275 22.4362 89.2388 22.3387C89.8425 22.1624 90.3713 22.3574 90.8025 22.8862C91.0575 23.2199 91.2113 23.2762 91.8 23.2762C92.6025 23.2762 92.895 23.4712 93.5588 24.4499C93.8692 24.8892 94.2948 25.2344 94.7888 25.4474C95.8838 25.9949 97.3688 27.5174 97.935 28.7287C98.8125 30.5249 98.9887 32.6137 98.4413 34.4887C98.2463 35.1937 98.2463 35.2124 98.655 35.8949C99.5138 37.3612 99.8288 39.1574 99.4763 40.6799L99.2813 41.5799L99.8663 42.1649C102.776 45.0749 102.345 49.8224 98.7938 54.0599C98.3968 54.544 98.0618 55.0756 97.7963 55.6424C97.1138 57.4574 96.33 58.7287 95.3175 59.7824L94.2825 60.8362H93.2288C92.175 60.8362 90.69 60.4837 89.79 60.0149C89.4188 59.8199 89.4 59.8199 89.4788 60.0524C89.715 60.9112 90.3 64.4062 90.495 66.3412C90.8063 69.3112 90.7087 73.6274 90.3 75.4837C90.0013 76.8585 89.5009 78.1816 88.815 79.41C88.425 80.0362 88.4063 80.1712 88.4813 80.9324C88.5975 82.005 88.3463 83.8049 87.915 84.9937C87.3863 86.3812 87.1913 87.0262 87.075 87.7274C86.9775 88.3312 86.9775 88.3312 87.4088 88.3312C87.975 88.3312 88.2863 88.6649 88.2863 89.3287C88.2863 89.6212 88.0313 91.2037 87.72 92.8237C86.8613 97.3762 86.8013 97.8824 86.8013 102.296C86.7825 106.849 86.7825 106.807 87.8175 107.49L90.1425 108.994C92.1427 110.321 94.2847 111.422 96.5288 112.275C99.7913 113.565 100.241 113.895 100.241 114.99C100.241 115.477 100.144 115.654 99.735 116.044C98.4863 117.255 96.0225 117.529 91.0613 117C88.4832 116.758 85.8956 116.635 83.3063 116.629C76.47 116.531 75.4725 116.295 74.5763 114.596C74.07 113.621 74.1675 112.35 74.8688 110.261C75.18 109.342 75.4538 108.405 75.69 107.449C76.1588 105.184 75.8475 102.487 74.7525 99.4424L73.815 96.8437C72.8962 94.2075 72.39 89.3812 72.9375 88.2899C73.035 88.0762 73.2113 88.035 73.68 88.0537L74.265 88.1137L74.7525 87.0974C75.1238 86.2949 75.5325 85.77 76.6463 84.6562L78.0713 83.2312L77.9925 82.3124C77.9325 81.4349 76.7813 77.1749 76.6238 77.1937C76.5638 77.1937 76.2525 77.6249 75.9 78.1687C75.0413 79.4587 73.1475 81.4499 72.0713 82.1737C71.6025 82.4849 71.2125 82.8562 71.2125 82.9762C71.1938 83.505 70.7438 84.5399 70.1963 85.2599C69.6675 85.9649 69.63 86.0812 69.7088 86.7037C69.8438 87.6224 69.5513 90.5699 69.2025 92.1149C68.8864 93.2621 68.4541 94.3741 67.9125 95.4337C66.5663 98.2274 65.55 100.725 65.295 101.88C65.1108 102.992 64.9931 104.114 64.9425 105.24C64.8825 106.567 64.7475 107.857 64.65 108.131C64.515 108.502 64.515 108.795 64.6313 109.361C64.7288 109.77 64.7888 110.689 64.7663 111.412C64.7475 112.41 64.8263 113.055 65.1188 114.225C65.625 116.216 65.7225 117.469 65.49 118.211C65.3325 118.68 65.1788 118.856 64.65 119.111C63.4763 119.715 60.1575 120.049 58.3612 119.737L58.365 119.745ZM63.1088 118.144C63.7913 117.949 64.38 117.364 64.38 116.835C64.38 116.599 64.185 115.916 63.9488 115.312C63.48 114.161 62.6775 111.112 62.6775 110.606C62.6775 110.351 62.6963 110.332 63.0863 110.546L63.5175 110.782V110.235C63.4549 109.73 63.3431 109.233 63.1838 108.75C62.8125 107.636 62.775 107.617 60.4088 107.479L58.8075 107.4L58.2225 107.966C57.9008 108.297 57.6189 108.665 57.3825 109.061C57.1275 109.567 57.03 110.332 57.1875 110.505C57.225 110.565 57.6188 110.505 58.0463 110.407C58.3 110.332 58.5618 110.287 58.8263 110.272C58.8263 110.291 58.395 110.644 57.8513 111.015C55.5075 112.774 54.6863 113.846 54.6863 115.215C54.6863 116.64 56.0325 117.754 58.1438 118.087C59.5875 118.301 62.4 118.361 63.105 118.147L63.1088 118.144ZM94.8863 115.819C95.4713 115.114 95.3925 114.394 94.65 113.572C94.2188 113.141 93.7313 112.77 93.1838 112.477C92.6363 112.185 92.0888 111.851 91.5413 111.502C90.551 110.861 89.5338 110.261 88.4925 109.706C87.5925 109.219 86.715 108.709 85.8563 108.165L85.5038 107.891V102.521C85.5038 97.2299 85.485 97.1512 85.2113 97.2299C83.8425 97.6012 81.5775 97.7775 78.7088 97.7174L75.6038 97.6799L76.0538 98.7749C76.8938 100.845 77.325 103.62 77.325 106.804C77.325 107.996 77.2463 108.424 76.9538 109.264C76.7963 109.672 76.6613 110.085 76.5225 110.494C76.4625 110.67 76.68 110.805 77.4788 111.041C78.0638 111.217 78.9225 111.394 79.4138 111.45L80.3138 111.547L80.2163 112.447C80.1188 113.464 80.235 114.536 80.49 114.87C80.6475 115.065 81.2325 115.144 83.9475 115.26C85.9988 115.357 88.2263 115.571 89.9813 115.826C91.5038 116.062 93.1462 116.257 93.6338 116.257C94.455 116.276 94.5338 116.239 94.8825 115.826L94.8863 115.819ZM63.6188 106.68C63.6975 106.62 63.8138 105.566 63.855 104.317C64.0125 100.822 64.1475 100.312 65.9063 96.3674C67.35 93.1462 68.115 90.1387 68.055 88.0087L68.0175 86.7374L67.47 87.2662C66.3375 88.3987 67.1175 86.6212 68.4675 85.0387C69.4838 83.8274 69.8363 83.1637 69.99 82.0912C70.0688 81.66 70.2263 81.4462 70.89 80.9399C73.3735 79.0639 75.2871 76.5349 76.4175 73.6349C76.6913 72.9299 77.3925 70.5299 77.9813 68.3024C79.0763 64.1812 79.6613 62.4037 80.19 61.6424C80.385 61.3499 80.4638 61.2899 80.4263 61.4849C80.143 62.5323 79.9214 63.5954 79.7625 64.6687C79.605 65.6249 79.3125 67.4999 79.1175 68.8087C78.7462 71.4862 78.3562 73.2037 77.8275 74.5312L77.475 75.4312L78.4125 77.8537C79.3875 80.3324 79.8375 82.1324 79.9163 83.8687L79.9763 84.8437L79.215 85.0012C78.2103 85.179 77.3137 85.7396 76.7138 86.5649C76.05 87.5212 75.6788 88.3049 75.855 88.4774C75.9338 88.5562 76.89 88.7324 77.985 88.8674C79.6837 89.0624 80.3288 89.0624 82.575 88.9274C83.55 88.8899 84.51 88.7924 85.4663 88.6537C85.68 88.575 85.8975 88.1474 86.2463 87.0337C87.0488 84.4762 87.2025 83.5762 87.105 81.7799L87.0263 80.1974L87.435 79.6687C88.3913 78.4575 89.1338 76.2712 89.445 73.7099C89.8163 70.5862 89.1338 64.0424 87.8625 58.4174C87.2588 55.7399 87.0038 54.1387 87.0038 52.9687V51.9337L86.0475 52.0312C82.6088 52.4024 78.45 52.3049 75.9113 51.7762C74.5238 51.5024 71.0288 50.4674 70.2675 50.1337L69.6638 49.8599L69.585 50.5424C69.525 50.9137 69.4688 51.2849 69.39 51.6749C69.2738 52.0837 69.3113 52.1812 70.035 52.8862C70.935 53.8049 71.2088 54.2737 71.2088 54.8962C71.2088 55.2862 70.995 55.6012 69.9 56.7337C69.1149 57.5715 68.2439 58.3244 67.3013 58.9799L66.03 59.8387L65.4825 61.7324C63.5288 68.6662 63.1575 74.9737 64.4475 79.4849L64.7588 80.6174L64.1325 81.3974C61.7888 84.3449 60.4013 86.5912 60.1875 87.8437C60.0625 88.4604 59.9187 89.0732 59.7563 89.6812C59.25 91.6162 58.8563 94.4474 58.6838 97.5149C58.5636 100.083 58.3948 102.648 58.1775 105.21L58.08 105.971L59.055 106.264C59.6025 106.44 60.4238 106.635 60.8925 106.714C61.77 106.849 63.3938 106.811 63.645 106.676L63.6188 106.68ZM82.5825 95.9362C84.105 95.8387 85.4925 95.6024 85.7663 95.3699C85.8825 95.2912 86.0213 94.8824 86.0588 94.4699L86.1563 93.7274L84.945 94.0012C83.9888 94.1962 83.0325 94.3124 82.0725 94.3912C79.7663 94.4887 77.445 94.4287 75.1575 94.1962C74.3962 94.0799 74.3963 94.0799 74.6288 95.0737C74.8238 95.8162 74.865 95.8537 76.8563 95.9924C78.1838 96.1087 80.04 96.09 82.5788 95.9324L82.5825 95.9362ZM81.3113 92.5387C83.3025 92.3624 85.785 91.9349 86.2725 91.6799C86.43 91.6012 86.565 91.3087 86.625 90.9749L86.8013 89.9399L86.8988 89.4524L86.4113 89.5499C84.2438 89.9999 82.6013 90.1349 79.32 90.1349C76.1175 90.1349 75.7463 90.1162 74.9063 89.8237C74.5834 89.6876 74.2397 89.6077 73.89 89.5874C73.755 89.6662 73.7325 90.7799 73.8525 91.5599C73.9313 92.0287 74.01 92.1074 74.4788 92.2424C75.9638 92.6512 78.465 92.7487 81.315 92.5162L81.3113 92.5387ZM45.0638 74.9212C50.0625 73.4774 56.6063 69.2362 61.9575 63.9262C63.6975 62.1862 63.9112 61.9537 64.1438 61.1737L64.455 60.1762C64.4925 60.0974 64.1813 59.9624 63.7725 59.8649C62.7 59.6099 61.8788 58.9874 61.8788 58.4212C61.8788 58.0874 61.6838 57.7574 61.1175 57.1499C60.1988 56.1149 59.9663 55.6649 59.8688 54.6712L59.79 53.8687L58.695 53.0887C58.0688 52.6387 55.8825 51.4274 53.5575 50.2574C51.7873 49.3938 50.0544 48.4555 48.3638 47.4449C46.41 46.1362 45.1013 44.5724 44.3588 42.7199C44.2238 42.3487 44.0475 42.0374 43.9875 42.0374C43.83 42.0374 39.435 46.2749 37.56 48.2662C32.9325 53.1487 29.7488 57.3862 27.735 61.3124C27.2288 62.2874 26.6813 63.4424 26.5238 63.8699L26.2313 64.6499L26.5838 65.9587C26.7975 66.6637 27.2475 67.8149 27.6 68.4974C28.83 70.9199 30.2963 72.3824 32.7188 73.575C35.3175 74.8649 37.62 75.3149 41.4675 75.255C43.5375 75.2362 44.145 75.1762 45.06 74.9025L45.0638 74.9212ZM5.61 57.7912C8.89125 54.8812 13.4213 51.6974 18.9713 48.3974C22.605 46.2299 36.6488 39.1987 43.1138 36.3262C44.2875 35.7974 45.3413 35.3099 45.4575 35.2537C45.5738 35.1749 45.9075 34.3349 46.2188 33.3974C47.5875 29.0624 48.27 28.2037 50.7488 27.6374C51.06 27.5587 51.1388 27.4612 51.1388 27.1499C51.1388 26.5837 51.5287 25.2749 51.8625 24.6899C52.1175 24.2399 52.1175 24.2212 51.9 24.2812C51.765 24.3187 50.9438 24.5549 50.085 24.8099C38.1713 28.2487 27.7613 32.8162 18.7763 38.5199C9.1875 44.6137 3.66 51.9187 2.05875 60.6674L1.9425 61.3124L3.11625 60.1612C3.7425 59.5162 4.875 58.4624 5.6175 57.8174L5.61 57.7912ZM93.99 59.4524C94.9463 58.9649 96.4313 56.7187 96.9788 54.9412C97.1363 54.3149 97.4475 53.7299 97.8975 53.2424C99.3413 51.6412 100.534 48.7312 100.553 46.7399C100.553 43.6349 98.7938 42.4424 96.2363 43.7699C95.9025 43.9274 95.6325 44.0437 95.5913 44.0062C95.4563 43.8712 96.1763 43.1662 97.0575 42.6187C98.2088 41.8574 98.4263 41.4074 98.4263 39.7874C98.4432 38.478 98.0541 37.1955 97.3125 36.1162C96.96 35.5874 96.825 35.2387 96.8813 35.0212L97.2338 33.7124C97.7213 31.9724 97.545 29.9812 96.7838 28.7137C95.6513 26.8012 94.2638 25.8637 92.3288 25.7062L91.1963 25.6274L91.86 26.3699C93.8325 28.4999 94.7888 31.1737 94.3988 33.4612C94.2038 34.6349 94.0275 34.8674 92.895 35.3174L92.2313 35.5912L92.31 36.4912C92.445 37.9574 92.1938 39.0299 91.2563 41.0024C90.7875 41.9999 90.435 42.8962 90.4763 42.9937C90.5925 43.3274 91.8825 43.9499 92.8988 44.2049L93.8962 44.4412L93.27 44.6549C92.4488 44.9099 92.2725 45.2812 92.2725 46.6274C92.2725 47.8574 92.4488 48.3674 93.345 49.7137C93.7538 50.2987 94.0275 50.9062 94.0688 51.2549C94.1475 51.8024 94.1288 51.8399 93.6788 51.9974C93.1687 52.1406 92.6441 52.2261 92.115 52.2524C90.2775 52.3687 90.1425 52.4287 89.3213 53.2087C88.5788 53.9137 88.56 53.9512 88.56 54.7312C88.56 55.8037 88.9688 57.9749 89.2238 58.2674C89.5575 58.6199 91.41 59.5387 92.1338 59.6737C92.7579 59.8304 93.4178 59.7544 93.99 59.4599V59.4524ZM66.9375 57.9899C68.13 57.0524 69.0675 56.1149 69.5925 55.3124C69.9263 54.8249 69.945 54.7274 69.7875 54.3149C69.5138 53.6887 67.7175 52.0687 66.72 51.5812C66.0554 51.2834 65.3523 51.0802 64.6313 50.9774L63.4013 50.8199L62.64 49.8637C61.0575 47.9099 60.18 46.3874 58.9275 43.4362C57.8325 40.9349 56.8762 39.4724 55.3538 38.0249C54.7275 37.4399 54.2813 36.9524 54.3188 36.9524C54.3975 36.9524 55.14 37.3237 55.9988 37.7737C57.4238 38.5349 57.6 38.5949 58.245 38.4974C60.57 38.2237 62.6213 35.5499 63.3638 31.7999C63.5775 30.7462 64.0088 29.6699 64.4588 29.0249C64.4775 29.0062 65.3775 29.5912 66.4313 30.3524C69.1088 32.2462 69.6938 32.5387 71.2163 32.5987C72.2138 32.6362 72.78 32.5612 74.5763 32.1299C78.405 31.1924 82.545 30.8212 85.065 31.1549C86.49 31.3499 88.5413 31.9762 90.0638 32.6962C91.5675 33.4012 91.86 33.4387 92.3475 33.0074C92.7563 32.6549 92.7563 32.5987 92.7563 31.2899C92.7375 29.3549 92.0325 27.2662 90.96 26.0174C90.4125 25.3724 88.8713 24.3187 87.345 23.5162C86.8025 23.2284 86.2624 22.9359 85.725 22.6387C85.0013 22.2074 84.1837 22.2674 81.9563 22.8524C79.3763 23.5162 78.6938 23.5162 75.7463 22.7549C73.245 22.1287 73.0912 22.1099 70.6275 22.4999C69.3188 22.6949 66.0375 22.5787 64.9425 22.2862C64.395 22.1287 63.8475 21.9749 63.3225 21.7799C62.3663 21.4087 60.705 21.3487 59.2013 21.6224C56.2125 22.1512 53.9475 23.7712 53.1262 25.9762C52.695 27.0899 52.755 27.6187 53.3213 27.9674C54.2213 28.5337 55.41 30.0787 55.41 30.6824C55.41 30.7199 55.1175 30.4687 54.7838 30.1162C53.9438 29.2387 53.1825 28.8449 52.2825 28.8449C51.7002 28.8611 51.134 29.0396 50.6477 29.3603C50.1613 29.681 49.7742 30.1311 49.53 30.6599C49.2672 31.35 49.0456 32.0549 48.8663 32.7712C48.3188 34.7624 47.8313 35.8199 46.7963 37.2262C45.8775 38.4974 45.7425 39.0637 46.0725 40.4887C46.8938 44.0812 48.3188 45.5287 54.2737 48.9074C57.3975 50.6849 58.9988 51.6824 60.1725 52.5599C61.0725 53.2237 61.0913 53.2649 61.0125 53.7712C60.8363 54.9449 61.5788 56.2124 63.045 57.2474C63.4163 57.5024 63.6488 57.7762 63.6488 57.9712C63.6488 58.3237 64.6462 58.8112 65.3663 58.8112C65.775 58.8112 66.09 58.6349 66.93 57.9899H66.9375ZM91.02 51.4049C93.285 51.4837 93.4013 51.3074 92.1938 49.9012C90.9225 48.4349 90.5738 47.2462 91.0425 45.9374L91.2375 45.4312L90.435 45.0412C90.1613 44.9062 89.8875 44.7674 89.6138 44.6699C89.4788 45.1987 89.34 45.7049 89.2238 46.2337C88.9313 47.4262 88.5788 50.5124 88.56 51.8212C88.56 51.9374 88.755 51.8999 89.0888 51.6862C89.5575 51.4124 89.7938 51.3749 91.0238 51.4124L91.02 51.4049ZM83.4225 51.2887C84.7913 51.2099 86.1975 51.1124 86.5688 51.0524L87.2513 50.9549L87.33 48.7087C87.4463 45.5062 87.915 43.6124 89.3025 40.5824C90.2775 38.4337 90.7088 36.5587 90.495 35.1524C90.4163 34.5487 90.3788 34.5074 89.5575 34.1549C88.0537 33.5578 86.4877 33.1314 84.8888 32.8837C83.3475 32.6699 78.8138 32.7862 77.115 33.1199C76.41 33.2362 75.1238 33.5099 74.265 33.7237C72.135 34.2112 71.0025 34.1549 69.3825 33.4499C67.7813 32.7449 66.765 32.1037 65.8087 31.2037C65.0475 30.4987 64.9688 30.4612 64.7738 30.6974C64.6163 30.8737 64.5375 31.4024 64.4812 32.5349C64.4213 34.2749 64.1475 35.1899 63.3863 36.4199C63.2171 36.673 63.0727 36.9417 62.955 37.2224C62.955 37.2824 63.54 37.9649 64.2638 38.7074C66.765 41.3062 67.995 41.9699 69.9675 41.8312C70.6125 41.7712 71.0625 41.7937 71.0625 41.8687C71.0625 42.0262 69.7913 43.0199 69.2663 43.2937C69.0113 43.4287 68.955 43.5674 68.9925 43.8599L69.3038 45.9112C69.48 47.0849 69.615 47.6287 69.7913 47.7862C70.26 48.1762 72.6825 49.4287 74.205 50.0512C76.1963 50.8537 77.2913 51.1462 78.8138 51.2812C80.6888 51.4387 80.7263 51.4387 83.4225 51.2812V51.2887ZM67.2713 49.1399C67.3088 49.0799 67.1738 47.9474 66.9188 46.6387C66.6075 44.8612 66.4313 44.2162 66.2363 44.0399C66.1013 43.9237 65.3775 43.4137 64.6538 42.8887C63.7028 42.2049 62.8018 41.4542 61.9575 40.6424L60.6113 39.3149L59.8875 39.6862L59.1263 40.0949C59.1903 40.4 59.295 40.6952 59.4375 40.9724C59.6513 41.4412 60.0825 42.5924 60.3938 43.5299C61.215 45.9712 61.86 47.1449 63.48 49.2712L64.0838 50.0737L65.235 50.2499C65.88 50.3474 66.525 50.4862 66.7013 50.5424C66.975 50.6587 67.0125 50.6024 67.0913 49.9762C67.1288 49.7024 67.1888 49.4099 67.2675 49.1362L67.2713 49.1399ZM92.0175 24.8437C93.015 24.7462 93.1913 24.6074 92.76 24.1612C92.4863 23.8874 91.86 23.8687 91.3538 24.1012C91.02 24.2587 90.945 24.2174 90.4163 23.6512C89.8688 23.0474 89.8313 23.0249 89.145 23.1037C88.5188 23.1824 88.4213 23.1637 88.3425 22.9087C88.0986 22.4898 87.7955 22.1084 87.4425 21.7762C86.9989 21.2722 86.4444 20.8781 85.8225 20.6249C84.6113 20.1562 83.9288 20.2162 82.7738 20.8612C79.4325 22.6762 79.5713 22.6574 76.3463 21.8362C73.3388 21.0749 71.0925 20.2949 70.3688 19.8037C69.765 19.3949 68.475 18.9449 67.3988 18.8062C66.5963 18.6899 66.09 18.8662 65.3288 19.4887L64.92 19.8224L65.2913 20.4674C65.7975 21.3674 65.7413 21.4237 64.98 20.7599C64.1588 20.0774 63.1838 19.6087 62.5575 19.5862C62.1075 19.5862 60.78 20.1712 60.6225 20.4262C60.5625 20.5049 60.975 20.6024 61.5225 20.6399C62.0888 20.6999 62.8688 20.8949 63.3975 21.1087C64.7663 21.6937 65.4675 21.8887 66.7163 22.0087C68.085 22.1437 70.5638 21.9899 70.8563 21.7537C71.0138 21.6187 71.4413 21.5962 72.3413 21.6749C73.5338 21.7537 74.0212 21.8699 76.8525 22.6312C78.495 23.0812 79.6463 23.0399 81.6 22.5149C82.5 22.2599 83.6325 22.0087 84.1013 21.9487C84.9038 21.8699 85.0575 21.9112 86.31 22.4774C88.3013 23.3774 89.3588 23.9437 89.9438 24.4687C90.5288 24.9749 90.6075 24.9749 92.0138 24.8587L92.0175 24.8437ZM80.8838 21.4274L82.0763 20.8012L82.0388 19.5899C82.02 18.7499 81.9788 17.9287 81.9413 17.1112L81.8438 15.8624L80.6513 16.7812C79.9463 17.3287 79.2638 17.7374 78.9713 17.7974C78.1125 17.9549 73.875 17.7974 73.4813 17.5837C72.9567 17.1962 72.4662 16.7646 72.015 16.2937L70.92 15.1799L70.9013 15.8437C70.9013 16.1962 70.8637 16.7999 70.785 17.1712C70.6875 17.8762 70.6875 17.8949 71.4487 18.8512C71.8575 19.3799 72.1912 19.8487 72.1912 19.9049C72.1912 20.2762 77.835 22.0349 79.1063 22.0537C79.515 22.0537 80.025 21.8774 80.8838 21.4274ZM78.6188 16.9912C80.025 16.7174 80.7075 15.7012 81.2363 13.1249C81.7838 10.3499 82.0575 5.99619 81.8025 4.13994C81.5663 2.45994 79.6913 1.71744 76.1175 1.83369C73.89 1.91244 72.9713 2.12619 72.21 2.77119C71.7413 3.16119 71.7413 3.20244 71.5275 5.05494C71.1375 8.60994 71.7225 13.6687 72.7388 15.5624C73.2263 16.4812 73.6575 16.8112 74.5538 16.9687C75.57 17.1449 77.7375 17.1449 78.615 16.9874L78.6188 16.9912Z"
                  fill="black"/>
        </svg>
    </g>

</svg>
