<svg width="1193" height="332" viewBox="0 0 1193 332" fill="none" xmlns="http://www.w3.org/2000/svg">

    <g id="github">
        <path fill-rule="evenodd" clip-rule="evenodd"
              d="M1149 223C1124.69 223 1105 242.69 1105 267C1105 286.47 1117.6 302.915 1135.09 308.745C1137.28 309.13 1138.11 307.81 1138.11 306.655C1138.11 305.61 1138.06 302.145 1138.06 298.46C1127 300.495 1124.14 295.765 1123.26 293.29C1122.77 292.025 1120.62 288.12 1118.75 287.075C1117.21 286.25 1115.01 284.215 1118.69 284.16C1122.16 284.105 1124.64 287.35 1125.46 288.67C1129.42 295.325 1135.75 293.455 1138.28 292.3C1138.66 289.44 1139.82 287.515 1141.08 286.415C1131.29 285.315 1121.06 281.52 1121.06 264.69C1121.06 259.905 1122.77 255.945 1125.57 252.865C1125.13 251.765 1123.59 247.255 1126.01 241.205C1126.01 241.205 1129.69 240.05 1138.11 245.715C1141.63 244.725 1145.37 244.23 1149.11 244.23C1152.85 244.23 1156.59 244.725 1160.11 245.715C1168.53 239.995 1172.21 241.205 1172.21 241.205C1174.63 247.255 1173.09 251.765 1172.65 252.865C1175.46 255.945 1177.16 259.85 1177.16 264.69C1177.16 281.575 1166.88 285.315 1157.08 286.415C1158.68 287.79 1160.06 290.43 1160.06 294.555C1160.06 300.44 1160 305.17 1160 306.655C1160 307.81 1160.83 309.185 1163.03 308.745C1171.76 305.796 1179.35 300.182 1184.73 292.694C1190.1 285.205 1193 276.219 1193 267C1193 242.69 1173.31 223 1149 223Z"
              fill="black"/>
    </g>

    <g id="git">
        <svg width="88" height="88" viewBox="0 0 88 88" fill="none" xmlns="http://www.w3.org/2000/svg">
            <path fill-rule="evenodd" clip-rule="evenodd" d="M44 0C19.69 0 0 19.69 0 44C0 63.47 12.595 79.915 30.085 85.745C32.285 86.13 33.11 84.81 33.11 83.655C33.11 82.61 33.055 79.145 33.055 75.46C22 77.495 19.14 72.765 18.26 70.29C17.765 69.025 15.62 65.12 13.75 64.075C12.21 63.25 10.01 61.215 13.695 61.16C17.16 61.105 19.635 64.35 20.46 65.67C24.42 72.325 30.745 70.455 33.275 69.3C33.66 66.44 34.815 64.515 36.08 63.415C26.29 62.315 16.06 58.52 16.06 41.69C16.06 36.905 17.765 32.945 20.57 29.865C20.13 28.765 18.59 24.255 21.01 18.205C21.01 18.205 24.695 17.05 33.11 22.715C36.63 21.725 40.37 21.23 44.11 21.23C47.85 21.23 51.59 21.725 55.11 22.715C63.525 16.995 67.21 18.205 67.21 18.205C69.63 24.255 68.09 28.765 67.65 29.865C70.455 32.945 72.16 36.85 72.16 41.69C72.16 58.575 61.875 62.315 52.085 63.415C53.68 64.79 55.055 67.43 55.055 71.555C55.055 77.44 55 82.17 55 83.655C55 84.81 55.825 86.185 58.025 85.745C66.7597 82.796 74.3497 77.1822 79.7268 69.6937C85.1039 62.2052 87.9974 53.219 88 44C88 19.69 68.31 0 44 0Z" fill="black"/>
        </svg>
    </g>

    <g id="react">
        <path d="M767.905 42.7027C766.703 42.2887 765.49 41.9051 764.269 41.5523C764.474 40.7106 764.663 39.8792 764.83 39.0623C767.584 25.6483 765.784 14.8418 759.636 11.2837C753.741 7.87278 744.102 11.4295 734.366 19.9334C733.406 20.773 732.468 21.6368 731.552 22.524C730.939 21.934 730.315 21.3556 729.68 20.7888C719.477 11.6962 709.249 7.86392 703.108 11.4321C697.219 14.8537 695.475 25.0127 697.954 37.7254C698.2 38.9844 698.479 40.237 698.789 41.4819C697.341 41.8947 695.944 42.3342 694.607 42.8019C682.644 46.9881 675.005 53.5483 675.005 60.3529C675.005 67.3808 683.206 74.43 695.666 78.7043C696.676 79.0495 697.695 79.3692 698.721 79.6634C698.388 81.0042 698.092 82.354 697.834 83.7114C695.471 96.2035 697.316 106.122 703.189 109.522C709.255 113.033 719.437 109.425 729.35 100.727C730.154 100.02 730.941 99.2925 731.708 98.546C732.7 99.5066 733.719 100.439 734.763 101.343C744.366 109.636 753.85 112.985 759.718 109.576C765.778 106.055 767.748 95.3995 765.191 82.4356C764.989 81.42 764.763 80.4094 764.513 79.4047C765.228 79.1921 765.93 78.9732 766.614 78.7455C779.567 74.4384 787.995 67.4747 787.995 60.3529C787.995 53.5234 780.109 46.919 767.905 42.7027ZM765.096 74.1474C764.478 74.3525 763.844 74.5505 763.198 74.7432C761.768 70.1995 759.839 65.3684 757.477 60.3764C759.73 55.5036 761.586 50.734 762.976 46.22C764.132 46.5558 765.253 46.9097 766.335 47.2832C776.791 50.8961 783.168 56.2372 783.168 60.3529C783.168 64.7367 776.28 70.4277 765.096 74.1474ZM760.456 83.3765C761.586 89.1087 761.747 94.2916 760.998 98.3435C760.326 101.984 758.973 104.412 757.299 105.384C753.738 107.453 746.123 104.764 737.911 97.6706C736.94 96.8305 735.993 95.9634 735.07 95.0703C738.254 91.5756 741.436 87.5131 744.541 83.0008C750.004 82.5144 755.164 81.7188 759.844 80.6331C760.069 81.5426 760.273 82.4573 760.456 83.3765ZM713.526 105.026C710.047 106.259 707.276 106.295 705.601 105.325C702.037 103.262 700.555 95.298 702.576 84.6151C702.816 83.3527 703.091 82.0972 703.401 80.8502C708.029 81.8779 713.152 82.6168 718.627 83.0624C721.754 87.4776 725.028 91.5358 728.327 95.0894C727.626 95.7703 726.908 96.4338 726.174 97.0793C721.79 100.925 717.397 103.654 713.526 105.026ZM697.228 74.1204C691.718 72.2302 687.168 69.7738 684.049 67.0933C681.246 64.6848 679.832 62.2932 679.832 60.3529C679.832 56.2234 685.966 50.9564 696.196 47.3766C697.438 46.9425 698.737 46.5327 700.085 46.1482C701.5 50.7641 703.354 55.5904 705.592 60.4707C703.325 65.4233 701.444 70.3267 700.016 74.997C699.08 74.7278 698.15 74.4355 697.228 74.1204ZM702.691 36.7947C700.567 25.9031 701.978 17.6871 705.527 15.625C709.307 13.4287 717.665 16.5601 726.475 24.4115C727.05 24.9247 727.615 25.4482 728.171 25.9819C724.888 29.52 721.644 33.548 718.545 37.9371C713.231 38.4315 708.144 39.2253 703.468 40.2889C703.18 39.131 702.921 37.9661 702.691 36.7951V36.7947ZM751.43 48.8739C750.325 46.9589 749.18 45.0679 747.994 43.2024C751.599 43.66 755.053 44.2673 758.297 45.0098C757.323 48.1425 756.109 51.4175 754.681 54.7753C753.636 52.7867 752.553 50.8191 751.43 48.8739ZM731.554 29.4443C733.781 31.8652 736.01 34.5678 738.203 37.5003C733.754 37.2894 729.298 37.2886 724.849 37.4977C727.044 34.5922 729.293 31.8931 731.554 29.4443ZM711.551 48.9071C710.442 50.8367 709.379 52.792 708.361 54.7713C706.956 51.4255 705.753 48.1355 704.771 44.9584C707.995 44.2346 711.433 43.6427 715.015 43.1935C713.816 45.0704 712.661 46.9754 711.551 48.9067V48.9071ZM715.118 77.8569C711.417 77.4423 707.927 76.881 704.704 76.1767C705.702 72.9429 706.931 69.5829 708.367 66.1653C709.389 68.1461 710.457 70.1026 711.57 72.033C712.715 74.0176 713.9 75.9614 715.118 77.8569ZM731.688 91.6027C729.399 89.1255 727.118 86.3848 724.889 83.4372C727.053 83.5222 729.258 83.5656 731.5 83.5656C733.803 83.5656 736.08 83.5138 738.32 83.4137C736.12 86.4145 733.899 89.1592 731.688 91.6027ZM754.726 65.9907C756.237 69.446 757.509 72.7883 758.52 75.9667C755.244 76.7171 751.707 77.3214 747.98 77.7701C749.175 75.8699 750.331 73.9461 751.449 71.9998C752.586 70.0214 753.678 68.0179 754.726 65.9907ZM747.268 69.5794C745.556 72.5634 743.749 75.4909 741.847 78.357C738.404 78.6018 734.952 78.7234 731.5 78.7216C727.984 78.7216 724.563 78.6118 721.27 78.3974C719.319 75.5378 717.477 72.6053 715.747 69.6059H715.747C714.026 66.6225 712.418 63.5745 710.926 60.4685C712.414 57.3618 714.017 54.3124 715.733 51.3267L715.732 51.3271C717.448 48.3407 719.275 45.4206 721.211 42.5734C724.571 42.3182 728.017 42.1853 731.5 42.1853H731.5C734.998 42.1853 738.448 42.3195 741.808 42.5765C743.724 45.4195 745.54 48.3295 747.252 51.301C748.974 54.2801 750.598 57.3147 752.123 60.3999C750.614 63.5166 748.994 66.5783 747.268 69.5794ZM757.225 15.4806C761.009 17.6707 762.48 26.5024 760.103 38.0842C759.951 38.8231 759.781 39.5757 759.595 40.339C754.907 39.2528 749.817 38.4452 744.487 37.9433C741.383 33.506 738.166 29.4717 734.936 25.9792C735.782 25.1604 736.649 24.3628 737.535 23.5871C745.877 16.3014 753.673 13.4247 757.225 15.4806ZM731.5 50.2263C737.072 50.2263 741.59 54.7603 741.59 60.3529C741.59 65.9456 737.072 70.4795 731.5 70.4795C725.928 70.4795 721.41 65.9456 721.41 60.3529C721.41 54.7603 725.928 50.2263 731.5 50.2263Z"
              fill="#00D8FF"/>
    </g>

    <g id="saas">
        <path d="M335.673 273.077C331.603 273.097 328.065 274.069 325.103 275.506C324.016 273.372 322.929 271.471 322.738 270.076C322.525 268.449 322.269 267.456 322.525 265.512C322.78 263.568 323.931 260.8 323.91 260.589C323.889 260.378 323.654 259.385 321.31 259.364C318.966 259.342 316.941 259.807 316.707 260.42C316.472 261.033 316.025 262.427 315.727 263.864C315.322 265.977 311.039 273.52 308.588 277.471C307.799 275.929 307.117 274.576 306.968 273.499C306.755 271.872 306.499 270.879 306.755 268.935C307.011 266.991 308.162 264.223 308.14 264.012C308.119 263.801 307.884 262.807 305.54 262.787C303.196 262.765 301.171 263.23 300.937 263.843C300.703 264.456 300.447 265.892 299.957 267.287C299.467 268.682 293.777 281.275 292.285 284.528C291.682 285.845 291.05 287.149 290.389 288.438C290.389 288.438 290.367 288.501 290.303 288.607C290.095 289.011 289.882 289.412 289.664 289.811V289.832C289.344 290.403 289.003 290.931 288.833 290.931C288.705 290.931 288.471 289.41 288.875 287.339C289.728 282.965 291.752 276.162 291.731 275.929C291.731 275.802 292.115 274.619 290.41 274.006C288.748 273.393 288.151 274.407 288.002 274.407C287.853 274.407 287.746 274.767 287.746 274.767C287.746 274.767 289.6 267.118 284.209 267.118C280.842 267.118 276.196 270.773 273.894 274.069C271.278 275.481 268.664 276.897 266.052 278.317C264.795 279.014 263.495 279.711 262.28 280.366C262.195 280.282 262.11 280.176 262.024 280.091C255.503 273.182 243.442 268.301 243.953 259.026C244.145 255.645 245.317 246.77 267.118 235.995C285.061 227.226 299.339 229.655 301.811 235.044C305.348 242.735 294.161 257.018 275.62 259.089C268.545 259.871 264.837 257.166 263.9 256.152C262.92 255.095 262.77 255.032 262.408 255.243C261.811 255.561 262.195 256.511 262.408 257.06C262.962 258.497 265.242 261.033 269.099 262.28C272.509 263.378 280.799 263.991 290.836 260.145C302.067 255.835 310.847 243.855 308.268 233.818C305.689 223.634 288.641 220.274 272.509 225.958C262.92 229.339 252.52 234.663 245.04 241.594C236.154 249.834 234.747 256.997 235.322 259.998C237.39 270.647 252.201 277.577 258.125 282.711C257.826 282.88 257.549 283.029 257.315 283.155C254.353 284.613 243.058 290.466 240.245 296.657C237.049 303.672 240.757 308.701 243.208 309.376C250.815 311.469 258.636 307.708 262.834 301.495C267.032 295.283 266.521 287.212 264.582 283.514C264.56 283.472 264.539 283.43 264.496 283.387C265.264 282.944 266.052 282.479 266.819 282.035C268.23 281.209 269.658 280.413 271.103 279.647C270.378 281.613 269.845 283.958 269.59 287.339C269.27 291.311 270.91 296.466 273.063 298.495C274.022 299.383 275.152 299.404 275.876 299.404C278.391 299.404 279.521 297.333 280.778 294.882C282.312 291.882 283.697 288.395 283.697 288.395C283.697 288.395 281.971 297.819 286.659 297.819C288.364 297.819 290.09 295.621 290.858 294.502V294.523C290.858 294.523 290.9 294.459 290.985 294.311C291.156 294.037 291.262 293.867 291.262 293.867V293.826C291.944 292.642 293.479 289.959 295.759 285.5C298.7 279.753 301.534 272.57 301.534 272.57C301.534 272.57 301.79 274.323 302.663 277.239C303.175 278.951 304.24 280.831 305.093 282.648C304.411 283.599 303.985 284.127 303.985 284.127L304.006 284.148C303.452 284.866 302.855 285.648 302.195 286.409C299.872 289.156 297.102 292.305 296.718 293.213C296.27 294.29 296.377 295.072 297.23 295.706C297.847 296.171 298.955 296.234 300.085 296.171C302.174 296.023 303.644 295.516 304.368 295.199C305.498 294.798 306.819 294.185 308.055 293.276C310.335 291.607 311.72 289.219 311.592 286.071C311.528 284.339 310.953 282.606 310.25 280.979C310.463 280.683 310.655 280.387 310.868 280.091C314.469 274.872 317.261 269.146 317.261 269.146C317.261 269.146 317.517 270.9 318.39 273.816C318.817 275.295 319.691 276.901 320.458 278.464C317.069 281.19 314.981 284.359 314.235 286.43C312.893 290.276 313.936 292.008 315.918 292.41C316.813 292.6 318.092 292.177 319.03 291.776C320.223 291.396 321.63 290.741 322.972 289.768C325.253 288.1 327.447 285.775 327.319 282.627C327.256 281.19 326.872 279.774 326.339 278.401C329.216 277.218 332.924 276.563 337.655 277.112C347.799 278.295 349.802 284.571 349.418 287.212C349.035 289.853 346.904 291.29 346.201 291.734C345.497 292.178 345.263 292.325 345.327 292.642C345.412 293.107 345.753 293.086 346.35 293.001C347.181 292.854 351.678 290.867 351.869 286.007C352.189 279.796 346.222 273.013 335.673 273.077ZM257.421 299.235C254.054 302.869 249.366 304.242 247.342 303.08C245.168 301.833 246.02 296.466 250.155 292.621C252.669 290.276 255.908 288.099 258.061 286.768C258.551 286.472 259.276 286.05 260.149 285.522C260.298 285.437 260.384 285.395 260.384 285.395L260.895 285.078C262.408 290.571 260.959 295.41 257.421 299.235ZM281.929 282.711C280.756 285.543 278.306 292.79 276.814 292.389C275.535 292.051 274.747 286.557 276.558 281.127C277.475 278.401 279.414 275.147 280.543 273.88C282.376 271.851 284.4 271.174 284.89 271.999C285.509 273.077 282.653 280.937 281.929 282.711ZM302.152 292.304C301.662 292.558 301.193 292.727 300.98 292.6C300.831 292.515 301.193 292.177 301.193 292.177C301.193 292.177 303.729 289.473 304.73 288.247C305.306 287.529 305.988 286.684 306.713 285.733V286.007C306.713 289.241 303.558 291.417 302.152 292.304H302.152ZM317.751 288.776C317.389 288.522 317.453 287.677 318.667 285.036C319.136 284 320.244 282.268 322.141 280.599C322.354 281.275 322.504 281.93 322.482 282.542C322.461 286.621 319.52 288.142 317.751 288.776Z"
              fill="#CD6799"/>
    </g>

    <g id="B">
        <path d="M1103 92.7821C1103 98.9781 1108.08 104 1114.35 104H1179.65C1185.92 104 1191 98.9774 1191 92.7821V28.2182C1191 22.0219 1185.92 17 1179.65 17H1114.35C1108.08 17 1103 22.0226 1103 28.2179V92.7818V92.7821Z"
              fill="#563D7C"/>
        <path d="M1139.49 55.4832V43.1629H1150.46C1151.51 43.1629 1152.51 43.2489 1153.48 43.4212C1154.45 43.5931 1155.31 43.9003 1156.06 44.3431C1156.8 44.786 1157.4 45.4007 1157.85 46.1875C1158.3 46.9746 1158.52 47.9829 1158.52 49.2121C1158.52 51.4255 1157.85 53.0241 1156.51 54.0076C1155.16 54.9915 1153.45 55.4832 1151.36 55.4832H1139.49ZM1127.78 34.1621V86.8379H1153.6C1155.98 86.8379 1158.31 86.5429 1160.57 85.9526C1162.84 85.3623 1164.85 84.4525 1166.62 83.223C1168.38 81.9934 1169.79 80.407 1170.83 78.4645C1171.88 76.5216 1172.4 74.2222 1172.4 71.5663C1172.4 68.2709 1171.59 65.4553 1169.98 63.1192C1168.36 60.7828 1165.91 59.1474 1162.62 58.2129C1165.01 57.0819 1166.82 55.6307 1168.04 53.8601C1169.25 52.0895 1169.86 49.8765 1169.86 47.2203C1169.86 44.7612 1169.45 42.6956 1168.63 41.0232C1167.81 39.3512 1166.65 38.0108 1165.16 37.0025C1163.67 35.9942 1161.88 35.2686 1159.79 34.8262C1157.7 34.3833 1155.39 34.1621 1152.85 34.1621H1127.78ZM1139.49 77.8371V63.3771H1152.25C1154.79 63.3771 1156.83 63.9548 1158.37 65.111C1159.91 66.2668 1160.69 68.1971 1160.69 70.9023C1160.69 72.2797 1160.45 73.4107 1159.98 74.296C1159.5 75.1813 1158.87 75.8823 1158.07 76.3986C1157.28 76.9151 1156.36 77.2839 1155.31 77.5054C1154.27 77.7263 1153.17 77.8371 1152.03 77.8371H1139.49Z"
              fill="white"/>
    </g>
    <g>
        <path d="M36.8438 257.084C40.6646 241.801 50.2167 234.159 65.5 234.159C88.425 234.159 91.2906 251.353 102.753 254.219C110.395 256.129 117.081 253.264 122.812 245.622C118.992 260.905 109.44 268.547 94.1562 268.547C71.2313 268.547 68.3656 251.353 56.9031 248.487C49.2615 246.577 42.575 249.443 36.8438 257.084ZM8.1875 291.472C12.0083 276.189 21.5604 268.547 36.8438 268.547C59.7687 268.547 62.6344 285.741 74.0969 288.606C81.7385 290.517 88.425 287.651 94.1562 280.009C90.3354 295.293 80.7833 302.934 65.5 302.934C42.575 302.934 39.7094 285.741 28.2469 282.875C20.6052 280.965 13.9187 283.83 8.1875 291.472Z"
              fill="#44A8B3"/>
        <path d="M990.535 228.605L970.354 218.889C969.214 218.339 967.932 218.158 966.685 218.37C965.437 218.582 964.287 219.177 963.393 220.072L897.33 280.3C896.529 281.027 896.049 282.043 895.996 283.124C895.944 284.205 896.323 285.263 897.05 286.064C897.138 286.159 897.225 286.25 897.32 286.334L902.713 291.234C903.418 291.875 904.325 292.25 905.277 292.292C906.229 292.334 907.166 292.042 907.925 291.465L987.497 231.125C988.098 230.669 988.815 230.39 989.566 230.319C990.317 230.248 991.073 230.388 991.749 230.723C992.425 231.058 992.993 231.576 993.391 232.217C993.789 232.858 994 233.598 994 234.352V234.117C994 232.966 993.675 231.837 993.062 230.862C992.449 229.887 991.573 229.104 990.535 228.605Z"
              fill="#0065A9"/>
        <path d="M990.535 305.395L970.354 315.115C969.214 315.662 967.932 315.843 966.685 315.631C965.438 315.419 964.288 314.825 963.393 313.932L897.33 253.7C896.529 252.973 896.049 251.957 895.996 250.876C895.944 249.795 896.323 248.737 897.05 247.936C897.138 247.841 897.225 247.75 897.32 247.666L902.713 242.766C903.419 242.122 904.328 241.746 905.282 241.704C906.237 241.661 907.175 241.956 907.935 242.535L987.497 302.875C988.098 303.331 988.815 303.61 989.566 303.681C990.317 303.752 991.073 303.612 991.749 303.277C992.425 302.942 992.993 302.424 993.391 301.783C993.789 301.142 994 300.403 994 299.648V299.9C993.996 301.049 993.669 302.173 993.057 303.145C992.444 304.117 991.57 304.896 990.535 305.395Z"
              fill="#007ACC"/>
        <path d="M970.354 315.114C969.214 315.662 967.932 315.843 966.685 315.631C965.438 315.419 964.287 314.825 963.392 313.931C963.895 314.428 964.533 314.764 965.226 314.899C965.919 315.034 966.637 314.962 967.289 314.691C967.941 314.42 968.499 313.963 968.892 313.376C969.285 312.79 969.497 312.1 969.5 311.394V222.606C969.501 221.896 969.291 221.203 968.897 220.613C968.503 220.023 967.942 219.563 967.287 219.292C966.631 219.02 965.91 218.949 965.214 219.088C964.518 219.227 963.879 219.57 963.378 220.072C964.273 219.177 965.423 218.582 966.67 218.37C967.917 218.157 969.2 218.337 970.34 218.885L990.517 228.587C991.559 229.084 992.438 229.866 993.054 230.841C993.67 231.817 993.998 232.946 994 234.1V299.9C994 301.053 993.675 302.182 993.061 303.158C992.447 304.134 991.571 304.917 990.531 305.416L970.354 315.114Z"
              fill="#1F9CF0"/>
    </g>

    <g id="html5">
        <path d="M457.5 7.5H562.5V112.5H457.5V7.5Z" fill="#F5DE19"/>
        <path d="M528.034 89.5312C528.928 91.3485 530.318 92.8759 532.043 93.9375C533.768 94.9991 535.758 95.5515 537.784 95.5313C541.871 95.5313 544.485 93.4875 544.485 90.6562C544.485 87.2812 541.8 86.0738 537.3 84.105L534.833 83.0475C527.708 80.0138 522.983 76.215 522.983 68.1825C522.983 60.7838 528.608 55.1475 537.431 55.1475C540.288 54.9412 543.142 55.5805 545.637 56.9856C548.132 58.3907 550.159 60.4994 551.464 63.0488L543.75 67.98C543.248 66.716 542.373 65.6345 541.242 64.879C540.11 64.1236 538.776 63.7298 537.416 63.75C536.823 63.6906 536.224 63.7555 535.657 63.9404C535.09 64.1254 534.568 64.4265 534.123 64.8244C533.679 65.2224 533.323 65.7085 533.077 66.2518C532.831 66.7951 532.701 67.3837 532.695 67.98C532.695 70.9388 534.529 72.1388 538.763 73.98L541.23 75.0375C549.615 78.6338 554.355 82.2975 554.355 90.5363C554.355 99.42 547.376 104.287 538.005 104.287C534.354 104.52 530.713 103.691 527.522 101.901C524.332 100.11 521.727 97.4342 520.024 94.1963L528.034 89.5312ZM493.178 90.3863C494.726 93.135 496.136 95.46 499.526 95.46C502.766 95.46 504.814 94.1925 504.814 89.2612V55.71H514.68V89.3925C514.68 99.6075 508.68 104.257 499.946 104.257C496.859 104.426 493.793 103.657 491.151 102.051C488.51 100.444 486.416 98.0761 485.145 95.2575L493.178 90.3863Z"
              fill="black"/>
        <path d="M247.132 102.154L238.71 8.4375H331.29L322.856 102.139L284.944 112.562L247.132 102.154Z"
              fill="#1572B6"/>
        <path d="M285 104.597L315.637 96.174L322.845 16.1019H285V104.597Z" fill="#33A9DC"/>
        <path d="M285 50.054H300.338L301.395 38.2842H285V26.7896H314.062L313.785 29.8724L310.939 61.5487H285V50.054Z"
              fill="white"/>
        <path d="M285.071 79.9045L285.019 79.9193L272.111 76.4609L271.286 67.2942H259.65L261.274 85.3413L285.015 91.8788L285.071 91.864V79.9045Z"
              fill="#EBEBEB"/>
        <path d="M299.351 61.0615L297.956 76.4534L285.03 79.9119V91.8714L308.79 85.3412L308.966 83.4001L310.98 61.0615H299.351Z"
              fill="white"/>
        <path d="M285.041 26.7896V38.2842H257.044L256.811 35.6997L256.282 29.8724L256.005 26.7896H285.041ZM285 50.054V61.5487H272.254L272.021 58.9642L271.496 53.1369L271.219 50.054H285Z"
              fill="#EBEBEB"/>
        <path d="M22.1323 102.004L13.7061 7.5H106.294L97.856 101.989L59.9436 112.5L22.1323 102.004Z" fill="#E44F26"/>
        <path d="M60 104.468L90.6375 95.9738L97.845 15.2288H60V104.468Z" fill="#F1662A"/>
        <path d="M60 50.2762H44.6625L43.605 38.4075H60V26.8162H30.9375L31.215 29.9287L34.0613 61.8675H60V50.2762ZM60 80.3775L59.9475 80.3925L47.04 76.9087L46.215 67.665H34.5787L36.2025 85.86L59.9475 92.4525L60 92.4375V80.3775Z"
              fill="#EBEBEB"/>
        <path d="M59.959 50.2762V61.8675H74.2315L72.889 76.9012L59.959 80.3887V92.4487L83.7227 85.86L83.8952 83.9025L86.6177 53.3887L86.9027 50.2762H59.959ZM59.959 26.8162V38.4075H87.9565L88.189 35.805L88.7177 29.9287L88.9952 26.8162H59.959Z"
              fill="white"/>
    </g>

    <g id="man">
        <path d="M732.365 326.745C730.801 326.471 729.181 325.729 728.262 324.908C727.639 324.253 727.283 323.389 727.265 322.485C727.265 321.566 727.734 320.276 728.476 318.99C728.926 318.266 729.279 317.486 729.53 316.665C729.687 316.099 730.017 315.18 730.272 314.595L730.722 313.523L730.839 306.356C730.899 302.393 731.015 298.721 731.112 298.151C731.367 296.509 731.795 294.908 732.361 293.348L732.792 292.313L732.166 291.941C731.6 291.589 731.131 291.101 729.275 288.893C726.991 286.196 723.984 284.711 719.724 284.205C718.336 284.07 716.93 283.969 715.524 283.913C709.272 283.62 705.699 282.311 702.477 279.146C700.074 276.784 698.825 274.028 698.319 269.966C697.636 264.476 696.875 261.664 695.469 259.38C695.122 258.816 694.723 258.286 694.276 257.798L693.71 257.231L692.461 258.034C691.779 258.484 690.819 259.05 690.35 259.305C688.786 260.164 687.301 261.12 685.876 262.155C682.381 264.694 678.571 267.878 676.482 269.966C675.545 270.904 675.057 271.312 674.84 271.275C673.415 271.061 674.506 264.889 676.831 260.239C679.801 254.243 684.8 248.715 690.582 244.984C695.33 241.916 703.006 237.698 706.557 236.213C712.865 233.576 721.029 230.723 726.616 229.2C727.79 228.866 728.51 228.574 728.997 228.244C730.092 227.483 731.165 227.111 732.395 227.093C733.43 227.074 733.527 227.055 734.525 226.388C735.699 225.626 736.047 225.585 737.221 225.998L737.982 226.271L738.92 225.626L739.857 225L741.204 225.019C742.239 225.038 742.707 225 743.157 224.805C743.724 224.55 743.742 224.513 743.9 223.575C744.252 221.543 744.29 220.526 744.076 219.296C743.802 217.676 743.765 211.388 744.039 210.154C744.331 208.826 744.526 208.553 745.524 208.065C747.009 207.341 748.122 207.128 750.68 207.128C753.804 207.128 755.386 207.559 756.56 208.691C757.614 209.708 757.79 212.089 757.242 217.676C756.909 220.898 756.871 221.798 756.969 223.905C757.006 225.251 757.104 226.523 757.145 226.699C757.224 227.033 757.302 227.051 758.435 227.07C759.549 227.089 759.744 227.149 760.797 227.696C761.814 228.225 762.575 228.87 762.732 229.339C762.751 229.436 762.927 229.436 763.239 229.339C763.842 229.163 764.371 229.358 764.802 229.886C765.057 230.22 765.211 230.276 765.8 230.276C766.602 230.276 766.895 230.471 767.559 231.45C767.869 231.889 768.295 232.234 768.789 232.448C769.884 232.995 771.369 234.518 771.935 235.729C772.812 237.525 772.989 239.614 772.441 241.489C772.246 242.194 772.246 242.213 772.655 242.895C773.514 244.361 773.829 246.158 773.476 247.68L773.281 248.58L773.866 249.165C776.776 252.075 776.345 256.823 772.794 261.06C772.397 261.544 772.062 262.076 771.796 262.643C771.114 264.458 770.33 265.729 769.317 266.783L768.282 267.836H767.229C766.175 267.836 764.69 267.484 763.79 267.015C763.419 266.82 763.4 266.82 763.479 267.053C763.715 267.911 764.3 271.406 764.495 273.341C764.806 276.311 764.709 280.628 764.3 282.484C764.001 283.859 763.501 285.182 762.815 286.41C762.425 287.036 762.406 287.171 762.481 287.933C762.597 289.005 762.346 290.805 761.915 291.994C761.386 293.381 761.191 294.026 761.075 294.728C760.977 295.331 760.977 295.331 761.409 295.331C761.975 295.331 762.286 295.665 762.286 296.329C762.286 296.621 762.031 298.204 761.72 299.824C760.861 304.376 760.801 304.883 760.801 309.296C760.782 313.849 760.782 313.808 761.817 314.49L764.142 315.994C766.143 317.321 768.285 318.422 770.529 319.275C773.791 320.565 774.241 320.895 774.241 321.99C774.241 322.478 774.144 322.654 773.735 323.044C772.486 324.255 770.022 324.529 765.061 324C762.483 323.758 759.896 323.635 757.306 323.629C750.47 323.531 749.472 323.295 748.576 321.596C748.07 320.621 748.167 319.35 748.869 317.261C749.18 316.343 749.454 315.405 749.69 314.449C750.159 312.184 749.847 309.488 748.752 306.443L747.815 303.844C746.896 301.208 746.39 296.381 746.937 295.29C747.035 295.076 747.211 295.035 747.68 295.054L748.265 295.114L748.752 294.098C749.124 293.295 749.532 292.77 750.646 291.656L752.071 290.231L751.992 289.313C751.932 288.435 750.781 284.175 750.624 284.194C750.564 284.194 750.252 284.625 749.9 285.169C749.041 286.459 747.147 288.45 746.071 289.174C745.602 289.485 745.212 289.856 745.212 289.976C745.194 290.505 744.744 291.54 744.196 292.26C743.667 292.965 743.63 293.081 743.709 293.704C743.844 294.623 743.551 297.57 743.202 299.115C742.886 300.262 742.454 301.374 741.912 302.434C740.566 305.228 739.55 307.725 739.295 308.88C739.111 309.992 738.993 311.114 738.942 312.24C738.882 313.568 738.747 314.858 738.65 315.131C738.515 315.503 738.515 315.795 738.631 316.361C738.729 316.77 738.789 317.689 738.766 318.413C738.747 319.41 738.826 320.055 739.119 321.225C739.625 323.216 739.722 324.469 739.49 325.211C739.332 325.68 739.179 325.856 738.65 326.111C737.476 326.715 734.157 327.049 732.361 326.738L732.365 326.745ZM737.109 325.144C737.791 324.949 738.38 324.364 738.38 323.835C738.38 323.599 738.185 322.916 737.949 322.313C737.48 321.161 736.677 318.113 736.677 317.606C736.677 317.351 736.696 317.333 737.086 317.546L737.517 317.783V317.235C737.455 316.73 737.343 316.233 737.184 315.75C736.812 314.636 736.775 314.618 734.409 314.479L732.807 314.4L732.222 314.966C731.901 315.297 731.619 315.665 731.382 316.061C731.127 316.568 731.03 317.333 731.187 317.505C731.225 317.565 731.619 317.505 732.046 317.408C732.3 317.332 732.562 317.287 732.826 317.273C732.826 317.291 732.395 317.644 731.851 318.015C729.507 319.774 728.686 320.846 728.686 322.215C728.686 323.64 730.032 324.754 732.144 325.088C733.587 325.301 736.4 325.361 737.105 325.148L737.109 325.144ZM768.886 322.819C769.471 322.114 769.392 321.394 768.65 320.573C768.219 320.141 767.731 319.77 767.184 319.478C766.636 319.185 766.089 318.851 765.541 318.503C764.551 317.861 763.534 317.261 762.492 316.706C761.592 316.219 760.715 315.709 759.856 315.165L759.504 314.891V309.521C759.504 304.23 759.485 304.151 759.211 304.23C757.842 304.601 755.577 304.778 752.709 304.718L749.604 304.68L750.054 305.775C750.894 307.845 751.325 310.62 751.325 313.804C751.325 314.996 751.246 315.424 750.954 316.264C750.796 316.673 750.661 317.085 750.522 317.494C750.462 317.67 750.68 317.805 751.479 318.041C752.064 318.218 752.922 318.394 753.414 318.45L754.314 318.548L754.216 319.448C754.119 320.464 754.235 321.536 754.49 321.87C754.647 322.065 755.232 322.144 757.947 322.26C759.999 322.358 762.226 322.571 763.981 322.826C765.504 323.063 767.146 323.258 767.634 323.258C768.455 323.276 768.534 323.239 768.882 322.826L768.886 322.819ZM737.619 313.68C737.697 313.62 737.814 312.566 737.855 311.318C738.012 307.823 738.147 307.313 739.906 303.368C741.35 300.146 742.115 297.139 742.055 295.009L742.017 293.738L741.47 294.266C740.337 295.399 741.117 293.621 742.467 292.039C743.484 290.828 743.836 290.164 743.99 289.091C744.069 288.66 744.226 288.446 744.89 287.94C747.373 286.064 749.287 283.535 750.417 280.635C750.691 279.93 751.392 277.53 751.981 275.303C753.076 271.181 753.661 269.404 754.19 268.643C754.385 268.35 754.464 268.29 754.426 268.485C754.143 269.532 753.921 270.595 753.762 271.669C753.605 272.625 753.312 274.5 753.117 275.809C752.746 278.486 752.356 280.204 751.827 281.531L751.475 282.431L752.412 284.854C753.387 287.333 753.837 289.133 753.916 290.869L753.976 291.844L753.215 292.001C752.21 292.179 751.314 292.74 750.714 293.565C750.05 294.521 749.679 295.305 749.855 295.478C749.934 295.556 750.89 295.733 751.985 295.868C753.684 296.063 754.329 296.063 756.575 295.928C757.55 295.89 758.51 295.793 759.466 295.654C759.68 295.575 759.897 295.148 760.246 294.034C761.049 291.476 761.202 290.576 761.105 288.78L761.026 287.198L761.435 286.669C762.391 285.458 763.134 283.271 763.445 280.71C763.816 277.586 763.134 271.043 761.862 265.418C761.259 262.74 761.004 261.139 761.004 259.969V258.934L760.047 259.031C756.609 259.403 752.45 259.305 749.911 258.776C748.524 258.503 745.029 257.468 744.267 257.134L743.664 256.86L743.585 257.543C743.525 257.914 743.469 258.285 743.39 258.675C743.274 259.084 743.311 259.181 744.035 259.886C744.935 260.805 745.209 261.274 745.209 261.896C745.209 262.286 744.995 262.601 743.9 263.734C743.115 264.572 742.244 265.324 741.301 265.98L740.03 266.839L739.482 268.733C737.529 275.666 737.157 281.974 738.447 286.485L738.759 287.618L738.132 288.398C735.789 291.345 734.401 293.591 734.187 294.844C734.063 295.461 733.919 296.073 733.756 296.681C733.25 298.616 732.856 301.448 732.684 304.515C732.564 307.083 732.395 309.648 732.177 312.21L732.08 312.971L733.055 313.264C733.602 313.44 734.424 313.635 734.892 313.714C735.77 313.849 737.394 313.811 737.645 313.676L737.619 313.68ZM756.582 302.936C758.105 302.839 759.492 302.603 759.766 302.37C759.882 302.291 760.021 301.883 760.059 301.47L760.156 300.728L758.945 301.001C757.989 301.196 757.032 301.313 756.072 301.391C753.766 301.489 751.445 301.429 749.157 301.196C748.396 301.08 748.396 301.08 748.629 302.074C748.824 302.816 748.865 302.854 750.856 302.993C752.184 303.109 754.04 303.09 756.579 302.933L756.582 302.936ZM755.311 299.539C757.302 299.363 759.785 298.935 760.272 298.68C760.43 298.601 760.565 298.309 760.625 297.975L760.801 296.94L760.899 296.453L760.411 296.55C758.244 297 756.601 297.135 753.32 297.135C750.117 297.135 749.746 297.116 748.906 296.824C748.583 296.688 748.24 296.608 747.89 296.588C747.755 296.666 747.732 297.78 747.852 298.56C747.931 299.029 748.01 299.108 748.479 299.243C749.964 299.651 752.465 299.749 755.315 299.516L755.311 299.539ZM719.064 281.921C724.062 280.478 730.606 276.236 735.957 270.926C737.697 269.186 737.911 268.954 738.144 268.174L738.455 267.176C738.492 267.098 738.181 266.963 737.772 266.865C736.7 266.61 735.879 265.988 735.879 265.421C735.879 265.088 735.684 264.758 735.117 264.15C734.199 263.115 733.966 262.665 733.869 261.671L733.79 260.869L732.695 260.089C732.069 259.639 729.882 258.428 727.557 257.258C725.787 256.394 724.054 255.456 722.364 254.445C720.41 253.136 719.101 251.573 718.359 249.72C718.224 249.349 718.047 249.038 717.987 249.038C717.83 249.038 713.435 253.275 711.56 255.266C706.932 260.149 703.749 264.386 701.735 268.313C701.229 269.288 700.681 270.443 700.524 270.87L700.231 271.65L700.584 272.959C700.797 273.664 701.247 274.815 701.6 275.498C702.83 277.92 704.296 279.383 706.719 280.575C709.317 281.865 711.62 282.315 715.467 282.255C717.537 282.236 718.145 282.176 719.06 281.903L719.064 281.921ZM679.61 264.791C682.891 261.881 687.421 258.698 692.971 255.398C696.605 253.23 710.649 246.199 717.114 243.326C718.287 242.798 719.341 242.31 719.457 242.254C719.574 242.175 719.907 241.335 720.219 240.398C721.587 236.063 722.27 235.204 724.749 234.638C725.06 234.559 725.139 234.461 725.139 234.15C725.139 233.584 725.529 232.275 725.862 231.69C726.117 231.24 726.117 231.221 725.9 231.281C725.765 231.319 724.944 231.555 724.085 231.81C712.171 235.249 701.761 239.816 692.776 245.52C683.187 251.614 677.66 258.919 676.059 267.668L675.942 268.313L677.116 267.161C677.742 266.516 678.875 265.463 679.617 264.818L679.61 264.791ZM767.99 266.453C768.946 265.965 770.431 263.719 770.979 261.941C771.136 261.315 771.447 260.73 771.897 260.243C773.341 258.641 774.534 255.731 774.552 253.74C774.552 250.635 772.794 249.443 770.236 250.77C769.902 250.928 769.632 251.044 769.591 251.006C769.456 250.871 770.176 250.166 771.057 249.619C772.209 248.858 772.426 248.408 772.426 246.788C772.443 245.478 772.054 244.196 771.312 243.116C770.96 242.588 770.825 242.239 770.881 242.021L771.234 240.713C771.721 238.973 771.545 236.981 770.784 235.714C769.651 233.801 768.264 232.864 766.329 232.706L765.196 232.628L765.86 233.37C767.832 235.5 768.789 238.174 768.399 240.461C768.204 241.635 768.027 241.868 766.895 242.318L766.231 242.591L766.31 243.491C766.445 244.958 766.194 246.03 765.256 248.003C764.787 249 764.435 249.896 764.476 249.994C764.592 250.328 765.882 250.95 766.899 251.205L767.896 251.441L767.27 251.655C766.449 251.91 766.272 252.281 766.272 253.628C766.272 254.858 766.449 255.368 767.345 256.714C767.754 257.299 768.027 257.906 768.069 258.255C768.147 258.803 768.129 258.84 767.679 258.998C767.169 259.141 766.644 259.226 766.115 259.253C764.277 259.369 764.142 259.429 763.321 260.209C762.579 260.914 762.56 260.951 762.56 261.731C762.56 262.804 762.969 264.975 763.224 265.268C763.557 265.62 765.41 266.539 766.134 266.674C766.758 266.83 767.418 266.754 767.99 266.46V266.453ZM740.937 264.99C742.13 264.053 743.067 263.115 743.592 262.313C743.926 261.825 743.945 261.728 743.787 261.315C743.514 260.689 741.717 259.069 740.72 258.581C740.055 258.283 739.352 258.08 738.631 257.978L737.401 257.82L736.64 256.864C735.057 254.91 734.18 253.388 732.927 250.436C731.832 247.935 730.876 246.473 729.354 245.025C728.727 244.44 728.281 243.953 728.319 243.953C728.397 243.953 729.14 244.324 729.999 244.774C731.424 245.535 731.6 245.595 732.245 245.498C734.57 245.224 736.621 242.55 737.364 238.8C737.577 237.746 738.009 236.67 738.459 236.025C738.477 236.006 739.377 236.591 740.431 237.353C743.109 239.246 743.694 239.539 745.216 239.599C746.214 239.636 746.78 239.561 748.576 239.13C752.405 238.193 756.545 237.821 759.065 238.155C760.49 238.35 762.541 238.976 764.064 239.696C765.567 240.401 765.86 240.439 766.347 240.008C766.756 239.655 766.756 239.599 766.756 238.29C766.737 236.355 766.032 234.266 764.96 233.018C764.412 232.373 762.871 231.319 761.345 230.516C760.802 230.228 760.262 229.936 759.725 229.639C759.001 229.208 758.184 229.268 755.956 229.853C753.376 230.516 752.694 230.516 749.746 229.755C747.245 229.129 747.091 229.11 744.627 229.5C743.319 229.695 740.037 229.579 738.942 229.286C738.395 229.129 737.847 228.975 737.322 228.78C736.366 228.409 734.705 228.349 733.201 228.623C730.212 229.151 727.947 230.771 727.126 232.976C726.695 234.09 726.755 234.619 727.321 234.968C728.221 235.534 729.41 237.079 729.41 237.683C729.41 237.72 729.117 237.469 728.784 237.116C727.944 236.239 727.182 235.845 726.282 235.845C725.7 235.861 725.134 236.04 724.648 236.36C724.161 236.681 723.774 237.131 723.53 237.66C723.267 238.35 723.046 239.055 722.866 239.771C722.319 241.763 721.831 242.82 720.796 244.226C719.877 245.498 719.742 246.064 720.072 247.489C720.894 251.081 722.319 252.529 728.274 255.908C731.397 257.685 732.999 258.683 734.172 259.56C735.072 260.224 735.091 260.265 735.012 260.771C734.836 261.945 735.579 263.213 737.045 264.248C737.416 264.503 737.649 264.776 737.649 264.971C737.649 265.324 738.646 265.811 739.366 265.811C739.775 265.811 740.09 265.635 740.93 264.99H740.937ZM765.02 258.405C767.285 258.484 767.401 258.308 766.194 256.901C764.922 255.435 764.574 254.246 765.042 252.938L765.237 252.431L764.435 252.041C764.161 251.906 763.887 251.768 763.614 251.67C763.479 252.199 763.34 252.705 763.224 253.234C762.931 254.426 762.579 257.513 762.56 258.821C762.56 258.938 762.755 258.9 763.089 258.686C763.557 258.413 763.794 258.375 765.024 258.413L765.02 258.405ZM757.422 258.289C758.791 258.21 760.197 258.113 760.569 258.053L761.251 257.955L761.33 255.709C761.446 252.506 761.915 250.613 763.302 247.583C764.277 245.434 764.709 243.559 764.495 242.153C764.416 241.549 764.379 241.508 763.557 241.155C762.054 240.558 760.488 240.131 758.889 239.884C757.347 239.67 752.814 239.786 751.115 240.12C750.41 240.236 749.124 240.51 748.265 240.724C746.135 241.211 745.002 241.155 743.382 240.45C741.781 239.745 740.765 239.104 739.809 238.204C739.047 237.499 738.969 237.461 738.774 237.698C738.616 237.874 738.537 238.403 738.481 239.535C738.421 241.275 738.147 242.19 737.386 243.42C737.217 243.673 737.073 243.942 736.955 244.223C736.955 244.283 737.54 244.965 738.264 245.708C740.765 248.306 741.995 248.97 743.967 248.831C744.612 248.771 745.062 248.794 745.062 248.869C745.062 249.026 743.791 250.02 743.266 250.294C743.011 250.429 742.955 250.568 742.992 250.86L743.304 252.911C743.48 254.085 743.615 254.629 743.791 254.786C744.26 255.176 746.682 256.429 748.205 257.051C750.196 257.854 751.291 258.146 752.814 258.281C754.689 258.439 754.726 258.439 757.422 258.281V258.289ZM741.271 256.14C741.309 256.08 741.174 254.948 740.919 253.639C740.607 251.861 740.431 251.216 740.236 251.04C740.101 250.924 739.377 250.414 738.654 249.889C737.703 249.205 736.802 248.454 735.957 247.643L734.611 246.315L733.887 246.686L733.126 247.095C733.19 247.4 733.295 247.695 733.437 247.973C733.651 248.441 734.082 249.593 734.394 250.53C735.215 252.971 735.86 254.145 737.48 256.271L738.084 257.074L739.235 257.25C739.88 257.348 740.525 257.486 740.701 257.543C740.975 257.659 741.012 257.603 741.091 256.976C741.129 256.703 741.189 256.41 741.267 256.136L741.271 256.14ZM766.017 231.844C767.015 231.746 767.191 231.608 766.76 231.161C766.486 230.888 765.86 230.869 765.354 231.101C765.02 231.259 764.945 231.218 764.416 230.651C763.869 230.048 763.831 230.025 763.145 230.104C762.519 230.183 762.421 230.164 762.342 229.909C762.099 229.49 761.795 229.108 761.442 228.776C760.999 228.272 760.444 227.878 759.822 227.625C758.611 227.156 757.929 227.216 756.774 227.861C753.432 229.676 753.571 229.658 750.346 228.836C747.339 228.075 745.092 227.295 744.369 226.804C743.765 226.395 742.475 225.945 741.399 225.806C740.596 225.69 740.09 225.866 739.329 226.489L738.92 226.823L739.291 227.468C739.797 228.368 739.741 228.424 738.98 227.76C738.159 227.078 737.184 226.609 736.557 226.586C736.107 226.586 734.78 227.171 734.622 227.426C734.562 227.505 734.975 227.603 735.522 227.64C736.089 227.7 736.869 227.895 737.397 228.109C738.766 228.694 739.467 228.889 740.716 229.009C742.085 229.144 744.564 228.99 744.856 228.754C745.014 228.619 745.441 228.596 746.341 228.675C747.534 228.754 748.021 228.87 750.852 229.631C752.495 230.081 753.646 230.04 755.6 229.515C756.5 229.26 757.632 229.009 758.101 228.949C758.904 228.87 759.057 228.911 760.31 229.478C762.301 230.378 763.359 230.944 763.944 231.469C764.529 231.975 764.607 231.975 766.014 231.859L766.017 231.844ZM754.884 228.428L756.076 227.801L756.039 226.59C756.02 225.75 755.979 224.929 755.941 224.111L755.844 222.863L754.651 223.781C753.946 224.329 753.264 224.738 752.971 224.798C752.112 224.955 747.875 224.798 747.481 224.584C746.957 224.196 746.466 223.765 746.015 223.294L744.92 222.18L744.901 222.844C744.901 223.196 744.864 223.8 744.785 224.171C744.687 224.876 744.687 224.895 745.449 225.851C745.857 226.38 746.191 226.849 746.191 226.905C746.191 227.276 751.835 229.035 753.106 229.054C753.515 229.054 754.025 228.878 754.884 228.428ZM752.619 223.991C754.025 223.718 754.707 222.701 755.236 220.125C755.784 217.35 756.057 212.996 755.802 211.14C755.566 209.46 753.691 208.718 750.117 208.834C747.89 208.913 746.971 209.126 746.21 209.771C745.741 210.161 745.741 210.203 745.527 212.055C745.137 215.61 745.722 220.669 746.739 222.563C747.226 223.481 747.657 223.811 748.554 223.969C749.57 224.145 751.737 224.145 752.615 223.988L752.619 223.991Z"
              fill="black"/>
    </g>

</svg>
