<svg width="130" height="31" viewBox="0 0 130 31" fill="none" xmlns="http://www.w3.org/2000/svg">

    <g id="linkedin">
        <path d="M115 1.6001C107.047 1.6001 100.6 8.0471 100.6 16.0001C100.6 23.9531 107.047 30.4001 115 30.4001C122.953 30.4001 129.4 23.9531 129.4 16.0001C129.4 8.0471 122.953 1.6001 115 1.6001ZM111.475 21.9686H108.559V12.5846H111.475V21.9686ZM109.999 11.4326C109.078 11.4326 108.483 10.7801 108.483 9.9731C108.483 9.1496 109.096 8.5166 110.037 8.5166C110.977 8.5166 111.553 9.1496 111.571 9.9731C111.571 10.7801 110.977 11.4326 109.999 11.4326ZM122.125 21.9686H119.209V16.7681C119.209 15.5576 118.786 14.7356 117.732 14.7356C116.926 14.7356 116.448 15.2921 116.236 15.8276C116.158 16.0181 116.139 16.2881 116.139 16.5566V21.9671H113.221V15.5771C113.221 14.4056 113.184 13.4261 113.145 12.5831H115.678L115.812 13.8866H115.87C116.254 13.2746 117.195 12.3716 118.768 12.3716C120.687 12.3716 122.125 13.6571 122.125 16.4201V21.9686Z"
              fill="#666666"/>
    </g>

    <g id="twitter">
        <path d="M66.875 0.875C58.5915 0.875 51.875 7.59152 51.875 15.875C51.875 24.1585 58.5915 30.875 66.875 30.875C75.1585 30.875 81.875 24.1585 81.875 15.875C81.875 7.59152 75.1585 0.875 66.875 0.875ZM74.0837 12.1819C74.0937 12.3393 74.0937 12.5033 74.0937 12.6641C74.0937 17.5792 70.3504 23.2411 63.51 23.2411C61.4007 23.2411 59.4453 22.6283 57.798 21.5737C58.0993 21.6071 58.3873 21.6205 58.6953 21.6205C60.4364 21.6205 62.0368 21.0312 63.3125 20.0335C61.6786 20 60.3058 18.9286 59.8371 17.4554C60.4096 17.5391 60.9252 17.5391 61.5145 17.3884C60.6732 17.2175 59.917 16.7605 59.3744 16.0953C58.8318 15.43 58.5362 14.5973 58.5379 13.7388V13.692C59.0301 13.9699 59.6094 14.1406 60.2154 14.1641C59.7059 13.8245 59.2881 13.3645 58.999 12.8249C58.7099 12.2852 58.5584 11.6825 58.558 11.0703C58.558 10.3772 58.7388 9.74442 59.0636 9.19531C59.9974 10.3449 61.1627 11.2851 62.4837 11.9548C63.8047 12.6245 65.2518 13.0088 66.731 13.0826C66.2054 10.5547 68.0938 8.50893 70.3638 8.50893C71.4353 8.50893 72.3996 8.95759 73.0792 9.6808C73.9196 9.52344 74.7232 9.2087 75.4397 8.78683C75.1618 9.64732 74.5792 10.3739 73.8058 10.8326C74.5558 10.7522 75.279 10.5446 75.9487 10.2533C75.4431 10.9967 74.8103 11.6562 74.0837 12.1819Z"
              fill="#666666"/>
    </g>

    <g id="git_cat">
        <path fill-rule="evenodd" clip-rule="evenodd"
              d="M15 1C6.7125 1 0 7.7125 0 16C0 22.6375 4.29375 28.2437 10.2563 30.2313C11.0063 30.3625 11.2875 29.9125 11.2875 29.5188C11.2875 29.1625 11.2688 27.9813 11.2688 26.725C7.5 27.4188 6.525 25.8062 6.225 24.9625C6.05625 24.5312 5.325 23.2 4.6875 22.8438C4.1625 22.5625 3.4125 21.8687 4.66875 21.85C5.85 21.8313 6.69375 22.9375 6.975 23.3875C8.325 25.6562 10.4812 25.0187 11.3438 24.625C11.475 23.65 11.8688 22.9937 12.3 22.6187C8.9625 22.2437 5.475 20.95 5.475 15.2125C5.475 13.5813 6.05625 12.2313 7.0125 11.1813C6.8625 10.8063 6.3375 9.26875 7.1625 7.20625C7.1625 7.20625 8.41875 6.8125 11.2875 8.74375C12.4875 8.40625 13.7625 8.2375 15.0375 8.2375C16.3125 8.2375 17.5875 8.40625 18.7875 8.74375C21.6562 6.79375 22.9125 7.20625 22.9125 7.20625C23.7375 9.26875 23.2125 10.8063 23.0625 11.1813C24.0188 12.2313 24.6 13.5625 24.6 15.2125C24.6 20.9688 21.0938 22.2437 17.7563 22.6187C18.3 23.0875 18.7688 23.9875 18.7688 25.3937C18.7688 27.4 18.75 29.0125 18.75 29.5188C18.75 29.9125 19.0312 30.3813 19.7812 30.2313C22.759 29.2259 25.3465 27.3121 27.1796 24.7592C29.0127 22.2063 29.9991 19.1429 30 16C30 7.7125 23.2875 1 15 1Z"
              fill="#666666"/>
    </g>

</svg>
